<svg xmlns="http://www.w3.org/2000/svg" width="1600" height="900" viewBox="0 0 1600 900">
  <defs>
    <linearGradient id="pageBg" x1="0" y1="0" x2="0" y2="1">
      <stop offset="0%" stop-color="#f4f7fb"/>
      <stop offset="100%" stop-color="#eef3f9"/>
    </linearGradient>
    <filter id="panelShadow" x="-10%" y="-10%" width="120%" height="120%">
      <feDropShadow dx="0" dy="12" stdDeviation="18" flood-color="#1e3a5f" flood-opacity="0.10"/>
    </filter>
  </defs>
<rect width="1600" height="900" fill="url(#pageBg)"/>
<rect x="54" y="44" width="1492" height="812" rx="36" fill="#ffffff" stroke="#d7e3f4" stroke-width="1.5" filter="url(#panelShadow)"/>
<text x="110" y="126" fill="#143d7a" font-size="46" font-family="Arial, sans-serif" font-weight="700">タイムライン</text>

<line x1="180" y1="480" x2="1420" y2="480" stroke="#94a3b8" stroke-width="8" stroke-linecap="round"/>
<circle cx="260" cy="480" r="18" fill="#2563eb"/><circle cx="580" cy="480" r="18" fill="#2563eb"/><circle cx="900" cy="480" r="18" fill="#2563eb"/><circle cx="1220" cy="480" r="18" fill="#2563eb"/>
<rect x="160" y="270" width="200" height="140" rx="22" fill="#eff6ff"/>
<rect x="480" y="540" width="200" height="140" rx="22" fill="#eff6ff"/>
<rect x="800" y="270" width="200" height="140" rx="22" fill="#eff6ff"/>
<rect x="1120" y="540" width="200" height="140" rx="22" fill="#eff6ff"/>
<text x="210" y="334" fill="#1d4ed8" font-size="26" font-family="Arial, sans-serif" font-weight="700">Q1</text>
<text x="530" y="604" fill="#1d4ed8" font-size="26" font-family="Arial, sans-serif" font-weight="700">Q2</text>
<text x="850" y="334" fill="#1d4ed8" font-size="26" font-family="Arial, sans-serif" font-weight="700">Q3</text>
<text x="1170" y="604" fill="#1d4ed8" font-size="26" font-family="Arial, sans-serif" font-weight="700">Q4</text>

</svg>
