<svg xmlns="http://www.w3.org/2000/svg" width="1600" height="900" viewBox="0 0 1600 900">
<rect width="1600" height="900" fill="#f8fafc"/>
<rect x="60" y="50" width="1480" height="800" rx="32" fill="#ffffff" stroke="#dbeafe" stroke-width="2"/>
<text x="110" y="126" fill="#0f172a" font-size="44" font-family="Arial, sans-serif" font-weight="700">ドーナツチャート</text>

<circle cx="580" cy="470" r="220" fill="#dbeafe"/>
<circle cx="580" cy="470" r="110" fill="#ffffff"/>
<path d="M580 470 L580 250 A220 220 0 0 1 759 322 Z" fill="#2563eb"/>
<path d="M580 470 L759 322 A220 220 0 0 1 786 600 Z" fill="#60a5fa"/>
<path d="M580 470 L786 600 A220 220 0 0 1 373 612 Z" fill="#93c5fd"/>
<text x="580" y="458" text-anchor="middle" fill="#0f172a" font-size="32" font-family="Arial, sans-serif" font-weight="700">72%</text>
<text x="580" y="496" text-anchor="middle" fill="#64748b" font-size="22" font-family="Arial, sans-serif">達成率</text>
<rect x="960" y="296" width="350" height="88" rx="20" fill="#eff6ff"/>
<rect x="960" y="410" width="350" height="88" rx="20" fill="#eff6ff"/>
<rect x="960" y="524" width="350" height="88" rx="20" fill="#eff6ff"/>

</svg>
