<svg xmlns="http://www.w3.org/2000/svg" width="1600" height="900" viewBox="0 0 1600 900">
<rect width="1600" height="900" fill="#f8fafc"/>
<rect x="60" y="50" width="1480" height="800" rx="32" fill="#ffffff" stroke="#dbeafe" stroke-width="2"/>
<text x="110" y="126" fill="#0f172a" font-size="44" font-family="Arial, sans-serif" font-weight="700">ガントチャート</text>

<rect x="120" y="220" width="1360" height="470" rx="28" fill="#ffffff" stroke="#cbd5e1"/>
<line x1="360" y1="220" x2="360" y2="690" stroke="#cbd5e1" stroke-width="2"/>
<line x1="620" y1="220" x2="620" y2="690" stroke="#e2e8f0" stroke-width="2"/>
<line x1="840" y1="220" x2="840" y2="690" stroke="#e2e8f0" stroke-width="2"/>
<line x1="1060" y1="220" x2="1060" y2="690" stroke="#e2e8f0" stroke-width="2"/>
<line x1="1280" y1="220" x2="1280" y2="690" stroke="#e2e8f0" stroke-width="2"/>
<line x1="120" y1="320" x2="1480" y2="320" stroke="#cbd5e1" stroke-width="2"/>
<line x1="120" y1="430" x2="1480" y2="430" stroke="#e2e8f0" stroke-width="2"/>
<line x1="120" y1="540" x2="1480" y2="540" stroke="#e2e8f0" stroke-width="2"/>
<rect x="420" y="346" width="380" height="52" rx="14" fill="#2563eb"/>
<rect x="680" y="456" width="320" height="52" rx="14" fill="#60a5fa"/>
<rect x="960" y="566" width="240" height="52" rx="14" fill="#93c5fd"/>

</svg>
