<svg xmlns="http://www.w3.org/2000/svg" width="1600" height="900" viewBox="0 0 1600 900">
  <defs>
    <linearGradient id="pageBg" x1="0" y1="0" x2="0" y2="1">
      <stop offset="0%" stop-color="#f4f7fb"/>
      <stop offset="100%" stop-color="#eef3f9"/>
    </linearGradient>
    <filter id="panelShadow" x="-10%" y="-10%" width="120%" height="120%">
      <feDropShadow dx="0" dy="12" stdDeviation="18" flood-color="#1e3a5f" flood-opacity="0.10"/>
    </filter>
  </defs>
<rect width="1600" height="900" fill="url(#pageBg)"/>
<rect x="54" y="44" width="1492" height="812" rx="36" fill="#ffffff" stroke="#d7e3f4" stroke-width="1.5" filter="url(#panelShadow)"/>
<text x="110" y="126" fill="#143d7a" font-size="46" font-family="Arial, sans-serif" font-weight="700">アイスクルツリー</text>

<rect x="160" y="210" width="1280" height="116" rx="22" fill="#dbeafe"/>
<rect x="160" y="354" width="560" height="144" rx="22" fill="#bfdbfe"/>
<rect x="748" y="354" width="692" height="144" rx="22" fill="#bfdbfe"/>
<rect x="160" y="526" width="260" height="156" rx="22" fill="#93c5fd"/>
<rect x="448" y="526" width="272" height="156" rx="22" fill="#93c5fd"/>
<rect x="748" y="526" width="330" height="156" rx="22" fill="#93c5fd"/>
<rect x="1106" y="526" width="334" height="156" rx="22" fill="#93c5fd"/>
<text x="210" y="280" fill="#1d4ed8" font-size="28" font-family="Arial, sans-serif" font-weight="700">トップテーマ</text>
<text x="210" y="434" fill="#1d4ed8" font-size="26" font-family="Arial, sans-serif" font-weight="700">分岐 A</text>
<text x="798" y="434" fill="#1d4ed8" font-size="26" font-family="Arial, sans-serif" font-weight="700">分岐 B</text>

</svg>
