<?xml version="1.0" encoding="UTF-8"?>
<svg xmlns="http://www.w3.org/2000/svg" width="1600" height="900" viewBox="0 0 1600 900">
<defs>
  <linearGradient id="pageBg" x1="0" y1="0" x2="0" y2="1">
    <stop offset="0%" stop-color="#f4f7fb"/>
    <stop offset="100%" stop-color="#eef3f9"/>
  </linearGradient>
  <linearGradient id="navyGrad" x1="0" y1="0" x2="1" y2="0">
    <stop offset="0%" stop-color="#1f4f97"/>
    <stop offset="100%" stop-color="#123b7a"/>
  </linearGradient>
  <linearGradient id="blueGrad" x1="0" y1="0" x2="1" y2="0">
    <stop offset="0%" stop-color="#4da0ff"/>
    <stop offset="100%" stop-color="#1d6fe8"/>
  </linearGradient>
  <filter id="panelShadow" x="-10%" y="-10%" width="120%" height="120%">
    <feDropShadow dx="0" dy="12" stdDeviation="18" flood-color="#1e3a5f" flood-opacity="0.10"/>
  </filter>
</defs>
<rect width="1600" height="900" fill="url(#pageBg)"/>
<rect x="54" y="44" width="1492" height="812" rx="36" fill="#ffffff" stroke="#d7e3f4" stroke-width="1.5" filter="url(#panelShadow)"/>
<text x="110" y="126" fill="#143d7a" font-size="46" font-family="Arial, sans-serif" font-weight="700">ケーススタディ構成</text>
<rect x="120" y="188" width="440" height="612" rx="28" fill="#f7faff" stroke="#d7e3f4"/>
<rect x="154" y="260" width="372" height="356" rx="26" fill="#dbeafe"/>
<rect x="188" y="300" width="304" height="240" rx="20" fill="#ffffff" opacity="0.75"/>
<path d="M220 486 C270 438 330 520 388 454 S478 432 494 468" stroke="#8fbaf4" stroke-width="16" fill="none" stroke-linecap="round"/>
<text x="340" y="664" fill="#64748b" font-size="24" font-family="Arial, sans-serif" text-anchor="middle">画面キャプチャ / 業務イメージ</text>
<rect x="154" y="214" width="132" height="30" rx="15" fill="#eef5ff"/>
<text x="220" y="234" fill="#1d4ed8" font-size="14" font-family="Arial, sans-serif" font-weight="700" text-anchor="middle">CASE STUDY</text>
<rect x="606" y="208" width="330" height="240" rx="26" fill="#ffffff" stroke="#d7e3f4"/>
<rect x="630" y="230" width="46" height="28" rx="14" fill="url(#blueGrad)"/>
<text x="653" y="249" fill="#ffffff" font-size="14" font-family="Arial, sans-serif" font-weight="700" text-anchor="middle">01</text>
<text x="630" y="300" fill="#143d7a" font-size="28" font-family="Arial, sans-serif" font-weight="700">課題</text>
<text x="630" y="354" fill="#475569" font-size="21" font-family="Arial, sans-serif">業務課題、協業停滞、指標プレッシャー</text>
<rect x="1010" y="208" width="330" height="240" rx="26" fill="#ffffff" stroke="#d7e3f4"/>
<rect x="1034" y="230" width="46" height="28" rx="14" fill="url(#blueGrad)"/>
<text x="1057" y="249" fill="#ffffff" font-size="14" font-family="Arial, sans-serif" font-weight="700" text-anchor="middle">02</text>
<text x="1034" y="300" fill="#143d7a" font-size="28" font-family="Arial, sans-serif" font-weight="700">解決策</text>
<text x="1034" y="354" fill="#475569" font-size="21" font-family="Arial, sans-serif">基盤能力、業務アクション、主要モジュール</text>
<rect x="606" y="510" width="330" height="240" rx="26" fill="#ffffff" stroke="#d7e3f4"/>
<rect x="630" y="532" width="46" height="28" rx="14" fill="url(#blueGrad)"/>
<text x="653" y="551" fill="#ffffff" font-size="14" font-family="Arial, sans-serif" font-weight="700" text-anchor="middle">03</text>
<text x="630" y="602" fill="#143d7a" font-size="28" font-family="Arial, sans-serif" font-weight="700">試行価値</text>
<text x="630" y="656" fill="#475569" font-size="21" font-family="Arial, sans-serif">効率向上、リスク低減、体験改善</text>
<rect x="1010" y="510" width="330" height="240" rx="26" fill="#ffffff" stroke="#d7e3f4"/>
<rect x="1034" y="532" width="46" height="28" rx="14" fill="url(#blueGrad)"/>
<text x="1057" y="551" fill="#ffffff" font-size="14" font-family="Arial, sans-serif" font-weight="700" text-anchor="middle">04</text>
<text x="1034" y="602" fill="#143d7a" font-size="28" font-family="Arial, sans-serif" font-weight="700">受入基準</text>
<text x="1034" y="656" fill="#475569" font-size="21" font-family="Arial, sans-serif">指標、期間、展開条件</text>
</svg>
