<svg xmlns="http://www.w3.org/2000/svg" width="1600" height="900" viewBox="0 0 1600 900">
<rect width="1600" height="900" fill="#f8fafc"/>
<rect x="60" y="50" width="1480" height="800" rx="32" fill="#ffffff" stroke="#dbeafe" stroke-width="2"/>
<text x="110" y="126" fill="#0f172a" font-size="44" font-family="Arial, sans-serif" font-weight="700">Heatmap</text>

<rect x="320" y="220" width="180" height="110" rx="18" fill="#eff6ff"/>
<rect x="520" y="220" width="180" height="110" rx="18" fill="#dbeafe"/>
<rect x="720" y="220" width="180" height="110" rx="18" fill="#bfdbfe"/>
<rect x="920" y="220" width="180" height="110" rx="18" fill="#93c5fd"/>
<rect x="1120" y="220" width="180" height="110" rx="18" fill="#60a5fa"/>
<rect x="320" y="350" width="180" height="110" rx="18" fill="#dbeafe"/>
<rect x="520" y="350" width="180" height="110" rx="18" fill="#bfdbfe"/>
<rect x="720" y="350" width="180" height="110" rx="18" fill="#93c5fd"/>
<rect x="920" y="350" width="180" height="110" rx="18" fill="#60a5fa"/>
<rect x="1120" y="350" width="180" height="110" rx="18" fill="#2563eb"/>
<rect x="320" y="480" width="180" height="110" rx="18" fill="#eff6ff"/>
<rect x="520" y="480" width="180" height="110" rx="18" fill="#93c5fd"/>
<rect x="720" y="480" width="180" height="110" rx="18" fill="#60a5fa"/>
<rect x="920" y="480" width="180" height="110" rx="18" fill="#2563eb"/>
<rect x="1120" y="480" width="180" height="110" rx="18" fill="#1d4ed8"/>
<rect x="320" y="610" width="180" height="110" rx="18" fill="#bfdbfe"/>
<rect x="520" y="610" width="180" height="110" rx="18" fill="#60a5fa"/>
<rect x="720" y="610" width="180" height="110" rx="18" fill="#2563eb"/>
<rect x="920" y="610" width="180" height="110" rx="18" fill="#1d4ed8"/>
<rect x="1120" y="610" width="180" height="110" rx="18" fill="#1e3a8a"/>
<text x="170" y="292" fill="#0f172a" font-size="24" font-family="Arial, sans-serif">A</text>
<text x="170" y="422" fill="#0f172a" font-size="24" font-family="Arial, sans-serif">B</text>
<text x="170" y="552" fill="#0f172a" font-size="24" font-family="Arial, sans-serif">C</text>
<text x="170" y="682" fill="#0f172a" font-size="24" font-family="Arial, sans-serif">D</text>

</svg>
