<svg xmlns="http://www.w3.org/2000/svg" width="1600" height="900" viewBox="0 0 1600 900">
<rect width="1600" height="900" fill="#f8fafc"/>
<rect x="60" y="50" width="1480" height="800" rx="32" fill="#ffffff" stroke="#dbeafe" stroke-width="2"/>
<text x="110" y="126" fill="#0f172a" font-size="44" font-family="Arial, sans-serif" font-weight="700">サンキー</text>

<rect x="220" y="250" width="120" height="120" rx="20" fill="#dbeafe"/>
<rect x="220" y="470" width="120" height="120" rx="20" fill="#dbeafe"/>
<rect x="760" y="210" width="120" height="120" rx="20" fill="#93c5fd"/>
<rect x="760" y="410" width="120" height="120" rx="20" fill="#93c5fd"/>
<rect x="760" y="610" width="120" height="120" rx="20" fill="#93c5fd"/>
<rect x="1260" y="320" width="120" height="120" rx="20" fill="#2563eb"/>
<rect x="1260" y="560" width="120" height="120" rx="20" fill="#2563eb"/>
<path d="M340 290 C520 290 560 250 760 250" stroke="#60a5fa" stroke-width="38" fill="none" stroke-linecap="round" opacity="0.7"/>
<path d="M340 330 C520 330 560 450 760 450" stroke="#93c5fd" stroke-width="28" fill="none" stroke-linecap="round" opacity="0.7"/>
<path d="M340 530 C520 530 560 470 760 470" stroke="#60a5fa" stroke-width="34" fill="none" stroke-linecap="round" opacity="0.7"/>
<path d="M880 270 C1060 270 1080 360 1260 360" stroke="#2563eb" stroke-width="40" fill="none" stroke-linecap="round" opacity="0.68"/>
<path d="M880 470 C1040 470 1100 600 1260 600" stroke="#1d4ed8" stroke-width="30" fill="none" stroke-linecap="round" opacity="0.68"/>

</svg>
