<svg xmlns="http://www.w3.org/2000/svg" width="1600" height="900" viewBox="0 0 1600 900">
  <defs>
    <linearGradient id="pageBg" x1="0" y1="0" x2="0" y2="1">
      <stop offset="0%" stop-color="#f4f7fb"/>
      <stop offset="100%" stop-color="#eef3f9"/>
    </linearGradient>
    <filter id="panelShadow" x="-10%" y="-10%" width="120%" height="120%">
      <feDropShadow dx="0" dy="12" stdDeviation="18" flood-color="#1e3a5f" flood-opacity="0.10"/>
    </filter>
  </defs>
<rect width="1600" height="900" fill="url(#pageBg)"/>
<rect x="54" y="44" width="1492" height="812" rx="36" fill="#ffffff" stroke="#d7e3f4" stroke-width="1.5" filter="url(#panelShadow)"/>
<text x="110" y="126" fill="#143d7a" font-size="46" font-family="Arial, sans-serif" font-weight="700">マイルストーン</text>

<line x1="180" y1="480" x2="1420" y2="480" stroke="#cbd5e1" stroke-width="10" stroke-linecap="round"/>
<polygon points="280,446 314,480 280,514 246,480" fill="#2563eb"/>
<polygon points="620,446 654,480 620,514 586,480" fill="#2563eb"/>
<polygon points="960,446 994,480 960,514 926,480" fill="#2563eb"/>
<polygon points="1300,446 1334,480 1300,514 1266,480" fill="#2563eb"/>
<text x="206" y="396" fill="#0f172a" font-size="24" font-family="Arial, sans-serif">キックオフ</text>
<text x="546" y="396" fill="#0f172a" font-size="24" font-family="Arial, sans-serif">ベータ版リリース</text>
<text x="886" y="396" fill="#0f172a" font-size="24" font-family="Arial, sans-serif">検収</text>
<text x="1226" y="396" fill="#0f172a" font-size="24" font-family="Arial, sans-serif">スケール展開</text>

</svg>
