<svg xmlns="http://www.w3.org/2000/svg" width="1600" height="900" viewBox="0 0 1600 900">
<defs>
  <linearGradient id="pageBg" x1="0" y1="0" x2="0" y2="1">
    <stop offset="0%" stop-color="#f4f7fb"/>
    <stop offset="100%" stop-color="#eef3f9"/>
  </linearGradient>
  <linearGradient id="navyGrad" x1="0" y1="0" x2="1" y2="0">
    <stop offset="0%" stop-color="#1f4f97"/>
    <stop offset="100%" stop-color="#123b7a"/>
  </linearGradient>
  <linearGradient id="blueGrad" x1="0" y1="0" x2="1" y2="0">
    <stop offset="0%" stop-color="#4da0ff"/>
    <stop offset="100%" stop-color="#1d6fe8"/>
  </linearGradient>
  <filter id="panelShadow" x="-10%" y="-10%" width="120%" height="120%">
    <feDropShadow dx="0" dy="12" stdDeviation="18" flood-color="#1e3a5f" flood-opacity="0.10"/>
  </filter>
</defs>
<rect width="1600" height="900" fill="url(#pageBg)"/>
<rect x="54" y="44" width="1492" height="812" rx="36" fill="#ffffff" stroke="#d7e3f4" stroke-width="1.5" filter="url(#panelShadow)"/>
<text x="110" y="126" fill="#143d7a" font-size="46" font-family="Arial, sans-serif" font-weight="700">品質閉ループの4段階展開</text>
<path d="M140 260 H1460" stroke="#d7e3f4" stroke-width="8" stroke-linecap="round"/>
<circle cx="250" cy="240" r="40" fill="#ffffff" stroke="url(#navyGrad)" stroke-width="8"/>
<text x="250" y="252" fill="#143d7a" font-size="28" font-family="Arial, sans-serif" font-weight="700" text-anchor="middle">01</text>
<path d="M250 280 V330" stroke="#bfd3ee" stroke-width="6" stroke-linecap="round"/>
<rect x="160" y="330" width="220" height="320" rx="26" fill="#f8fbff" stroke="#d9e4f3"/>
<rect x="160" y="330" width="220" height="52" rx="26" fill="url(#navyGrad)"/>
<text x="270" y="364" fill="#ffffff" font-size="24" font-family="Arial, sans-serif" font-weight="700" text-anchor="middle">立ち上げ</text>
<text x="186" y="440" fill="#334155" font-size="19" font-family="Arial, sans-serif" font-weight="400">• 目標と範囲を合わせる</text>
<text x="186" y="480" fill="#334155" font-size="19" font-family="Arial, sans-serif" font-weight="400">• 入出力の定義をそろえる</text>
<rect x="182" y="590" width="176" height="18" rx="9" fill="#d7e8ff"/>
<rect x="182" y="590" width="110" height="18" rx="9" fill="url(#blueGrad)"/>
<circle cx="590" cy="240" r="40" fill="#ffffff" stroke="url(#navyGrad)" stroke-width="8"/>
<text x="590" y="252" fill="#143d7a" font-size="28" font-family="Arial, sans-serif" font-weight="700" text-anchor="middle">02</text>
<path d="M590 280 V330" stroke="#bfd3ee" stroke-width="6" stroke-linecap="round"/>
<rect x="500" y="330" width="220" height="320" rx="26" fill="#f8fbff" stroke="#d9e4f3"/>
<rect x="500" y="330" width="220" height="52" rx="26" fill="url(#navyGrad)"/>
<text x="610" y="364" fill="#ffffff" font-size="24" font-family="Arial, sans-serif" font-weight="700" text-anchor="middle">最適化</text>
<text x="526" y="440" fill="#334155" font-size="19" font-family="Arial, sans-serif" font-weight="400">• ページと素材を磨く</text>
<text x="526" y="480" fill="#334155" font-size="19" font-family="Arial, sans-serif" font-weight="400">• 検証アクションを補う</text>
<rect x="522" y="590" width="176" height="18" rx="9" fill="#d7e8ff"/>
<rect x="522" y="590" width="110" height="18" rx="9" fill="url(#blueGrad)"/>
<circle cx="930" cy="240" r="40" fill="#ffffff" stroke="url(#navyGrad)" stroke-width="8"/>
<text x="930" y="252" fill="#143d7a" font-size="28" font-family="Arial, sans-serif" font-weight="700" text-anchor="middle">03</text>
<path d="M930 280 V330" stroke="#bfd3ee" stroke-width="6" stroke-linecap="round"/>
<rect x="840" y="330" width="220" height="320" rx="26" fill="#f8fbff" stroke="#d9e4f3"/>
<rect x="840" y="330" width="220" height="52" rx="26" fill="url(#navyGrad)"/>
<text x="950" y="364" fill="#ffffff" font-size="24" font-family="Arial, sans-serif" font-weight="700" text-anchor="middle">展開</text>
<text x="866" y="440" fill="#334155" font-size="19" font-family="Arial, sans-serif" font-weight="400">• 有効事例を横展開</text>
<text x="866" y="480" fill="#334155" font-size="19" font-family="Arial, sans-serif" font-weight="400">• テンプレート化して定着</text>
<rect x="862" y="590" width="176" height="18" rx="9" fill="#d7e8ff"/>
<rect x="862" y="590" width="110" height="18" rx="9" fill="url(#blueGrad)"/>
<circle cx="1270" cy="240" r="40" fill="#ffffff" stroke="url(#navyGrad)" stroke-width="8"/>
<text x="1270" y="252" fill="#143d7a" font-size="28" font-family="Arial, sans-serif" font-weight="700" text-anchor="middle">04</text>
<path d="M1270 280 V330" stroke="#bfd3ee" stroke-width="6" stroke-linecap="round"/>
<rect x="1180" y="330" width="220" height="320" rx="26" fill="#f8fbff" stroke="#d9e4f3"/>
<rect x="1180" y="330" width="220" height="52" rx="26" fill="url(#navyGrad)"/>
<text x="1290" y="364" fill="#ffffff" font-size="24" font-family="Arial, sans-serif" font-weight="700" text-anchor="middle">発展</text>
<text x="1206" y="440" fill="#334155" font-size="19" font-family="Arial, sans-serif" font-weight="400">• ルールと学びを整理</text>
<text x="1206" y="480" fill="#334155" font-size="19" font-family="Arial, sans-serif" font-weight="400">• 次の反復へつなぐ</text>
<rect x="1202" y="590" width="176" height="18" rx="9" fill="#d7e8ff"/>
<rect x="1202" y="590" width="110" height="18" rx="9" fill="url(#blueGrad)"/>
</svg>
