<svg xmlns="http://www.w3.org/2000/svg" width="1600" height="900" viewBox="0 0 1600 900">
<rect width="1600" height="900" fill="#f8fafc"/>
<rect x="60" y="50" width="1480" height="800" rx="32" fill="#ffffff" stroke="#dbeafe" stroke-width="2"/>
<text x="110" y="126" fill="#0f172a" font-size="44" font-family="Arial, sans-serif" font-weight="700">円グラフ</text>

<circle cx="560" cy="470" r="220" fill="#dbeafe"/>
<path d="M560 470 L560 250 A220 220 0 0 1 751 580 Z" fill="#2563eb"/>
<path d="M560 470 L751 580 A220 220 0 0 1 380 597 Z" fill="#60a5fa"/>
<path d="M560 470 L380 597 A220 220 0 0 1 560 250 Z" fill="#93c5fd"/>
<rect x="930" y="286" width="28" height="28" rx="8" fill="#2563eb"/><rect x="930" y="356" width="28" height="28" rx="8" fill="#60a5fa"/><rect x="930" y="426" width="28" height="28" rx="8" fill="#93c5fd"/>
<text x="978" y="308" fill="#0f172a" font-size="24" font-family="Arial, sans-serif">構造図</text>
<text x="978" y="378" fill="#0f172a" font-size="24" font-family="Arial, sans-serif">フロー図</text>
<text x="978" y="448" fill="#0f172a" font-size="24" font-family="Arial, sans-serif">チャート</text>

</svg>
