<svg xmlns="http://www.w3.org/2000/svg" width="1600" height="900" viewBox="0 0 1600 900">
  <defs>
    <linearGradient id="pageBg" x1="0" y1="0" x2="0" y2="1">
      <stop offset="0%" stop-color="#f4f7fb"/>
      <stop offset="100%" stop-color="#eef3f9"/>
    </linearGradient>
    <filter id="panelShadow" x="-10%" y="-10%" width="120%" height="120%">
      <feDropShadow dx="0" dy="12" stdDeviation="18" flood-color="#1e3a5f" flood-opacity="0.10"/>
    </filter>
  </defs>
<rect width="1600" height="900" fill="url(#pageBg)"/>
<rect x="54" y="44" width="1492" height="812" rx="36" fill="#ffffff" stroke="#d7e3f4" stroke-width="1.5" filter="url(#panelShadow)"/>
<text x="110" y="126" fill="#143d7a" font-size="46" font-family="Arial, sans-serif" font-weight="700">ジャーニーマップ</text>

<line x1="180" y1="470" x2="1420" y2="470" stroke="#cbd5e1" stroke-width="6"/>
<rect x="180" y="270" width="240" height="120" rx="24" fill="#dbeafe"/>
<rect x="500" y="270" width="240" height="120" rx="24" fill="#dbeafe"/>
<rect x="820" y="270" width="240" height="120" rx="24" fill="#dbeafe"/>
<rect x="1140" y="270" width="240" height="120" rx="24" fill="#dbeafe"/>
<rect x="180" y="530" width="240" height="120" rx="24" fill="#ffffff" stroke="#cbd5e1"/>
<rect x="500" y="530" width="240" height="120" rx="24" fill="#ffffff" stroke="#cbd5e1"/>
<rect x="820" y="530" width="240" height="120" rx="24" fill="#ffffff" stroke="#cbd5e1"/>
<rect x="1140" y="530" width="240" height="120" rx="24" fill="#ffffff" stroke="#cbd5e1"/>
<text x="240" y="338" fill="#1d4ed8" font-size="26" font-family="Arial, sans-serif" font-weight="700">認知</text>
<text x="560" y="338" fill="#1d4ed8" font-size="26" font-family="Arial, sans-serif" font-weight="700">理解</text>
<text x="880" y="338" fill="#1d4ed8" font-size="26" font-family="Arial, sans-serif" font-weight="700">試用</text>
<text x="1200" y="338" fill="#1d4ed8" font-size="26" font-family="Arial, sans-serif" font-weight="700">复用</text>

</svg>
