<svg xmlns="http://www.w3.org/2000/svg" width="1600" height="900" viewBox="0 0 1600 900">
  <defs>
    <linearGradient id="pageBg" x1="0" y1="0" x2="0" y2="1">
      <stop offset="0%" stop-color="#f4f7fb"/>
      <stop offset="100%" stop-color="#eef3f9"/>
    </linearGradient>
    <filter id="panelShadow" x="-10%" y="-10%" width="120%" height="120%">
      <feDropShadow dx="0" dy="12" stdDeviation="18" flood-color="#1e3a5f" flood-opacity="0.10"/>
    </filter>
  </defs>
<rect width="1600" height="900" fill="url(#pageBg)"/>
<rect x="54" y="44" width="1492" height="812" rx="36" fill="#ffffff" stroke="#d7e3f4" stroke-width="1.5" filter="url(#panelShadow)"/>
<text x="110" y="126" fill="#143d7a" font-size="46" font-family="Arial, sans-serif" font-weight="700">アジェンダ</text>

<rect x="120" y="188" width="1320" height="128" rx="26" fill="#eff6ff"/>
<rect x="120" y="346" width="1320" height="128" rx="26" fill="#ffffff" stroke="#cbd5e1"/>
<rect x="120" y="504" width="1320" height="128" rx="26" fill="#ffffff" stroke="#cbd5e1"/>
<rect x="120" y="662" width="1320" height="128" rx="26" fill="#ffffff" stroke="#cbd5e1"/>
<circle cx="182" cy="252" r="26" fill="#2563eb"/><circle cx="182" cy="410" r="26" fill="#93c5fd"/><circle cx="182" cy="568" r="26" fill="#93c5fd"/><circle cx="182" cy="726" r="26" fill="#93c5fd"/>
<text x="174" y="260" fill="#ffffff" font-size="22" font-family="Arial, sans-serif" font-weight="700">1</text>
<text x="174" y="418" fill="#ffffff" font-size="22" font-family="Arial, sans-serif" font-weight="700">2</text>
<text x="174" y="576" fill="#ffffff" font-size="22" font-family="Arial, sans-serif" font-weight="700">3</text>
<text x="174" y="734" fill="#ffffff" font-size="22" font-family="Arial, sans-serif" font-weight="700">4</text>
<text x="236" y="246" fill="#0f172a" font-size="30" font-family="Arial, sans-serif" font-weight="700">なぜ最初に アウトライン を見るのか</text>
<text x="236" y="286" fill="#475569" font-size="22" font-family="Arial, sans-serif">先に構成を決め、その後でページ表現を決める</text>
<text x="236" y="404" fill="#0f172a" font-size="30" font-family="Arial, sans-serif" font-weight="700">レイアウト をどう選ぶか</text>
<text x="236" y="562" fill="#0f172a" font-size="30" font-family="Arial, sans-serif" font-weight="700">SVG とチャートをどう組み合わせるか</text>
<text x="236" y="720" fill="#0f172a" font-size="30" font-family="Arial, sans-serif" font-weight="700">実際の納品をどう実現するか</text>

</svg>
