<svg xmlns="http://www.w3.org/2000/svg" width="1600" height="900" viewBox="0 0 1600 900">
<rect width="1600" height="900" fill="#f8fafc"/>
<rect x="60" y="50" width="1480" height="800" rx="32" fill="#ffffff" stroke="#dbeafe" stroke-width="2"/>
<text x="110" y="126" fill="#0f172a" font-size="44" font-family="Arial, sans-serif" font-weight="700">ウォーターフォールチャート</text>

<line x1="180" y1="700" x2="1400" y2="700" stroke="#94a3b8" stroke-width="4"/>
<rect x="250" y="360" width="110" height="340" rx="16" fill="#2563eb"/>
<rect x="470" y="360" width="110" height="140" rx="16" fill="#93c5fd"/>
<line x1="360" y1="360" x2="470" y2="360" stroke="#cbd5e1" stroke-width="4" stroke-dasharray="10 8"/>
<rect x="690" y="300" width="110" height="200" rx="16" fill="#93c5fd"/>
<line x1="580" y1="500" x2="690" y2="500" stroke="#cbd5e1" stroke-width="4" stroke-dasharray="10 8"/>
<rect x="910" y="300" width="110" height="290" rx="16" fill="#fca5a5"/>
<line x1="800" y1="300" x2="910" y2="300" stroke="#cbd5e1" stroke-width="4" stroke-dasharray="10 8"/>
<rect x="1130" y="410" width="110" height="290" rx="16" fill="#2563eb"/>
<line x1="1020" y1="590" x2="1130" y2="590" stroke="#cbd5e1" stroke-width="4" stroke-dasharray="10 8"/>
<text x="270" y="748" fill="#0f172a" font-size="22" font-family="Arial, sans-serif">ベースライン</text>
<text x="484" y="748" fill="#0f172a" font-size="22" font-family="Arial, sans-serif">増加</text>
<text x="707" y="748" fill="#0f172a" font-size="22" font-family="Arial, sans-serif">増加</text>
<text x="930" y="748" fill="#0f172a" font-size="22" font-family="Arial, sans-serif">減少</text>
<text x="1154" y="748" fill="#0f172a" font-size="22" font-family="Arial, sans-serif">结果</text>

</svg>
