<svg xmlns="http://www.w3.org/2000/svg" width="1600" height="900" viewBox="0 0 1600 900">
<defs>
  <linearGradient id="pageBg" x1="0" y1="0" x2="0" y2="1">
    <stop offset="0%" stop-color="#f4f7fb"/>
    <stop offset="100%" stop-color="#eef3f9"/>
  </linearGradient>
  <linearGradient id="navyGrad" x1="0" y1="0" x2="1" y2="0">
    <stop offset="0%" stop-color="#1f4f97"/>
    <stop offset="100%" stop-color="#123b7a"/>
  </linearGradient>
  <linearGradient id="blueGrad" x1="0" y1="0" x2="1" y2="0">
    <stop offset="0%" stop-color="#4da0ff"/>
    <stop offset="100%" stop-color="#1d6fe8"/>
  </linearGradient>
  <filter id="panelShadow" x="-10%" y="-10%" width="120%" height="120%">
    <feDropShadow dx="0" dy="12" stdDeviation="18" flood-color="#1e3a5f" flood-opacity="0.10"/>
  </filter>
</defs>
<rect width="1600" height="900" fill="url(#pageBg)"/>
<rect x="54" y="44" width="1492" height="812" rx="36" fill="#ffffff" stroke="#d7e3f4" stroke-width="1.5" filter="url(#panelShadow)"/>
<text x="110" y="126" fill="#143d7a" font-size="46" font-family="Arial, sans-serif" font-weight="700">2026年の重点施策 6 ステップ</text>
<path d="M180 230 H1290 Q1375 230 1375 315 V355 Q1375 440 1290 440 H310 Q220 440 220 530 V570 Q220 655 305 655 H1410" fill="none" stroke="url(#navyGrad)" stroke-width="54" stroke-linecap="round" stroke-linejoin="round"/>
<path d="M180 230 H1290 Q1375 230 1375 315 V355 Q1375 440 1290 440 H310 Q220 440 220 530 V570 Q220 655 305 655 H1410" fill="none" stroke="#8fbaf4" stroke-width="4" stroke-dasharray="10 10" stroke-linecap="round" stroke-linejoin="round"/>
<circle cx="260" cy="310" r="34" fill="#ffffff" stroke="url(#blueGrad)" stroke-width="8"/>
<text x="260" y="320" fill="#143d7a" font-size="28" font-family="Arial, sans-serif" font-weight="700" text-anchor="middle">01</text>
<text x="310" y="210" fill="#143d7a" font-size="25" font-family="Arial, sans-serif" font-weight="700" text-anchor="middle">市場深耕</text>
<text x="310" y="244" fill="#475569" font-size="18" font-family="Arial, sans-serif" font-weight="400" text-anchor="middle">重点顧客と重点地域を深く攻める</text>
<circle cx="590" cy="310" r="34" fill="#ffffff" stroke="url(#blueGrad)" stroke-width="8"/>
<text x="590" y="320" fill="#143d7a" font-size="28" font-family="Arial, sans-serif" font-weight="700" text-anchor="middle">02</text>
<text x="640" y="210" fill="#143d7a" font-size="25" font-family="Arial, sans-serif" font-weight="700" text-anchor="middle">チーム強化</text>
<text x="640" y="244" fill="#475569" font-size="18" font-family="Arial, sans-serif" font-weight="400" text-anchor="middle">方法・テンプレート・運営を強化</text>
<circle cx="930" cy="310" r="34" fill="#ffffff" stroke="url(#blueGrad)" stroke-width="8"/>
<text x="930" y="320" fill="#143d7a" font-size="28" font-family="Arial, sans-serif" font-weight="700" text-anchor="middle">03</text>
<text x="980" y="210" fill="#143d7a" font-size="25" font-family="Arial, sans-serif" font-weight="700" text-anchor="middle">顧客運営</text>
<text x="980" y="244" fill="#475569" font-size="18" font-family="Arial, sans-serif" font-weight="400" text-anchor="middle">高価値顧客の転換率を高める</text>
<circle cx="310" cy="500" r="34" fill="#ffffff" stroke="url(#blueGrad)" stroke-width="8"/>
<text x="310" y="510" fill="#143d7a" font-size="28" font-family="Arial, sans-serif" font-weight="700" text-anchor="middle">04</text>
<text x="360" y="600" fill="#143d7a" font-size="25" font-family="Arial, sans-serif" font-weight="700" text-anchor="middle">製品戦略</text>
<text x="360" y="634" fill="#475569" font-size="18" font-family="Arial, sans-serif" font-weight="400" text-anchor="middle">提案・内容・タイミングを統一</text>
<circle cx="710" cy="500" r="34" fill="#ffffff" stroke="url(#blueGrad)" stroke-width="8"/>
<text x="710" y="510" fill="#143d7a" font-size="28" font-family="Arial, sans-serif" font-weight="700" text-anchor="middle">05</text>
<text x="760" y="600" fill="#143d7a" font-size="25" font-family="Arial, sans-serif" font-weight="700" text-anchor="middle">業務統合</text>
<text x="760" y="634" fill="#475569" font-size="18" font-family="Arial, sans-serif" font-weight="400" text-anchor="middle">連携効率と納品安定性を上げる</text>
<circle cx="1110" cy="500" r="34" fill="#ffffff" stroke="url(#blueGrad)" stroke-width="8"/>
<text x="1110" y="510" fill="#143d7a" font-size="28" font-family="Arial, sans-serif" font-weight="700" text-anchor="middle">06</text>
<text x="1160" y="600" fill="#143d7a" font-size="25" font-family="Arial, sans-serif" font-weight="700" text-anchor="middle">振り返り改善</text>
<text x="1160" y="634" fill="#475569" font-size="18" font-family="Arial, sans-serif" font-weight="400" text-anchor="middle">月次で検証し素早く修正する</text>
</svg>
