<svg xmlns="http://www.w3.org/2000/svg" width="1600" height="900" viewBox="0 0 1600 900">
  <defs>
    <linearGradient id="pageBg" x1="0" y1="0" x2="0" y2="1">
      <stop offset="0%" stop-color="#f4f7fb"/>
      <stop offset="100%" stop-color="#eef3f9"/>
    </linearGradient>
    <filter id="panelShadow" x="-10%" y="-10%" width="120%" height="120%">
      <feDropShadow dx="0" dy="12" stdDeviation="18" flood-color="#1e3a5f" flood-opacity="0.10"/>
    </filter>
  </defs>
<rect width="1600" height="900" fill="url(#pageBg)"/>
<rect x="54" y="44" width="1492" height="812" rx="36" fill="#ffffff" stroke="#d7e3f4" stroke-width="1.5" filter="url(#panelShadow)"/>
<text x="110" y="126" fill="#143d7a" font-size="46" font-family="Arial, sans-serif" font-weight="700">リスク台帳</text>

<rect x="120" y="220" width="1360" height="460" rx="28" fill="#ffffff" stroke="#cbd5e1"/>
<line x1="120" y1="310" x2="1480" y2="310" stroke="#cbd5e1" stroke-width="2"/>
<line x1="420" y1="220" x2="420" y2="680" stroke="#cbd5e1" stroke-width="2"/>
<line x1="900" y1="220" x2="900" y2="680" stroke="#cbd5e1" stroke-width="2"/>
<line x1="1160" y1="220" x2="1160" y2="680" stroke="#cbd5e1" stroke-width="2"/>
<line x1="120" y1="430" x2="1480" y2="430" stroke="#e2e8f0" stroke-width="2"/>
<line x1="120" y1="550" x2="1480" y2="550" stroke="#e2e8f0" stroke-width="2"/>
<text x="160" y="276" fill="#0f172a" font-size="28" font-family="Arial, sans-serif" font-weight="700">リスク項目</text>
<text x="460" y="276" fill="#0f172a" font-size="28" font-family="Arial, sans-serif" font-weight="700">影響</text>
<text x="940" y="276" fill="#0f172a" font-size="28" font-family="Arial, sans-serif" font-weight="700">レベル</text>
<text x="1200" y="276" fill="#0f172a" font-size="28" font-family="Arial, sans-serif" font-weight="700">対応</text>
<rect x="928" y="340" width="160" height="52" rx="14" fill="#fee2e2"/><rect x="928" y="460" width="160" height="52" rx="14" fill="#fef3c7"/><rect x="928" y="580" width="160" height="52" rx="14" fill="#d1fae5"/>

</svg>
