<svg xmlns="http://www.w3.org/2000/svg" width="1600" height="900" viewBox="0 0 1600 900">
  <defs>
    <linearGradient id="pageBg" x1="0" y1="0" x2="0" y2="1">
      <stop offset="0%" stop-color="#f4f7fb"/>
      <stop offset="100%" stop-color="#eef3f9"/>
    </linearGradient>
    <filter id="panelShadow" x="-10%" y="-10%" width="120%" height="120%">
      <feDropShadow dx="0" dy="12" stdDeviation="18" flood-color="#1e3a5f" flood-opacity="0.10"/>
    </filter>
  </defs>
<rect width="1600" height="900" fill="url(#pageBg)"/>
<rect x="54" y="44" width="1492" height="812" rx="36" fill="#ffffff" stroke="#d7e3f4" stroke-width="1.5" filter="url(#panelShadow)"/>
<text x="110" y="126" fill="#143d7a" font-size="46" font-family="Arial, sans-serif" font-weight="700">ロジックツリー</text>

<rect x="650" y="180" width="300" height="92" rx="20" fill="#dbeafe"/>
<text x="800" y="236" text-anchor="middle" fill="#1d4ed8" font-size="28" font-family="Arial, sans-serif" font-weight="700">中核課題</text>
<line x1="800" y1="272" x2="800" y2="356" stroke="#94a3b8" stroke-width="6"/>
<line x1="420" y1="356" x2="1180" y2="356" stroke="#94a3b8" stroke-width="6"/>
<line x1="460" y1="356" x2="460" y2="434" stroke="#94a3b8" stroke-width="6"/>
<line x1="800" y1="356" x2="800" y2="434" stroke="#94a3b8" stroke-width="6"/>
<line x1="1140" y1="356" x2="1140" y2="434" stroke="#94a3b8" stroke-width="6"/>
<rect x="300" y="434" width="320" height="120" rx="24" fill="#ffffff" stroke="#cbd5e1"/>
<rect x="640" y="434" width="320" height="120" rx="24" fill="#ffffff" stroke="#cbd5e1"/>
<rect x="980" y="434" width="320" height="120" rx="24" fill="#ffffff" stroke="#cbd5e1"/>
<text x="460" y="502" text-anchor="middle" fill="#0f172a" font-size="24" font-family="Arial, sans-serif">原因分岐 A</text>
<text x="800" y="502" text-anchor="middle" fill="#0f172a" font-size="24" font-family="Arial, sans-serif">原因分岐 B</text>
<text x="1140" y="502" text-anchor="middle" fill="#0f172a" font-size="24" font-family="Arial, sans-serif">原因分岐 C</text>

</svg>
