<svg xmlns="http://www.w3.org/2000/svg" width="1600" height="900" viewBox="0 0 1600 900">
<defs>
  <linearGradient id="pageBg" x1="0" y1="0" x2="0" y2="1">
    <stop offset="0%" stop-color="#f4f7fb"/>
    <stop offset="100%" stop-color="#eef3f9"/>
  </linearGradient>
  <linearGradient id="navyGrad" x1="0" y1="0" x2="1" y2="0">
    <stop offset="0%" stop-color="#1f4f97"/>
    <stop offset="100%" stop-color="#123b7a"/>
  </linearGradient>
  <linearGradient id="blueGrad" x1="0" y1="0" x2="1" y2="0">
    <stop offset="0%" stop-color="#4da0ff"/>
    <stop offset="100%" stop-color="#1d6fe8"/>
  </linearGradient>
  <filter id="panelShadow" x="-10%" y="-10%" width="120%" height="120%">
    <feDropShadow dx="0" dy="12" stdDeviation="18" flood-color="#1e3a5f" flood-opacity="0.10"/>
  </filter>
</defs>
<rect width="1600" height="900" fill="url(#pageBg)"/>
<rect x="54" y="44" width="1492" height="812" rx="36" fill="#ffffff" stroke="#d7e3f4" stroke-width="1.5" filter="url(#panelShadow)"/>
<text x="110" y="126" fill="#143d7a" font-size="46" font-family="Arial, sans-serif" font-weight="700">Continuous AI Ops Loop</text>
<path d="M300 250 H1235 Q1320 250 1320 335 V365 Q1320 450 1235 450 H380 Q295 450 295 535 V555 Q295 640 380 640 H1220" fill="none" stroke="url(#navyGrad)" stroke-width="48" stroke-linecap="round" stroke-linejoin="round"/>
<path d="M300 250 H1235 Q1320 250 1320 335 V365 Q1320 450 1235 450 H380 Q295 450 295 535 V555 Q295 640 380 640 H1220" fill="none" stroke="#8fbaf4" stroke-width="4" stroke-dasharray="10 10" stroke-linecap="round" stroke-linejoin="round"/>
<rect x="570" y="312" width="460" height="150" rx="30" fill="#f6faff" stroke="#d9e4f3"/>
<text x="800" y="372" fill="#143d7a" font-size="34" font-family="Arial, sans-serif" font-weight="700" text-anchor="middle">Loop Backbone</text>
<text x="800" y="412" fill="#4b5563" font-size="20" font-family="Arial, sans-serif" font-weight="400" text-anchor="middle">Deploy, collect, detect, diagnose and respond in one continuous loop</text>
<circle cx="430" cy="250" r="34" fill="#ffffff" stroke="#2f6fe4" stroke-width="8"/>
<text x="430" y="260" fill="#143d7a" font-size="26" font-family="Arial, sans-serif" font-weight="700" text-anchor="middle">01</text>
<rect x="310" y="164" width="240" height="78" rx="18" fill="#ffffff" stroke="#d9e4f3"/>
<text x="430" y="192" fill="#143d7a" font-size="22" font-family="Arial, sans-serif" font-weight="700" text-anchor="middle">Deploy</text>
<text x="430" y="218" fill="#4b5563" font-size="17" font-family="Arial, sans-serif" font-weight="400" text-anchor="middle">Canary release / A-B compare</text>
<circle cx="760" cy="250" r="34" fill="#ffffff" stroke="#17a2c6" stroke-width="8"/>
<text x="760" y="260" fill="#143d7a" font-size="26" font-family="Arial, sans-serif" font-weight="700" text-anchor="middle">02</text>
<rect x="640" y="164" width="240" height="78" rx="18" fill="#ffffff" stroke="#d9e4f3"/>
<text x="760" y="192" fill="#143d7a" font-size="22" font-family="Arial, sans-serif" font-weight="700" text-anchor="middle">Collect</text>
<text x="760" y="218" fill="#4b5563" font-size="17" font-family="Arial, sans-serif" font-weight="400" text-anchor="middle">Logs / traces / features</text>
<circle cx="1200" cy="340" r="34" fill="#ffffff" stroke="#f59d0e" stroke-width="8"/>
<text x="1200" y="350" fill="#143d7a" font-size="26" font-family="Arial, sans-serif" font-weight="700" text-anchor="middle">03</text>
<rect x="1240" y="314" width="240" height="78" rx="18" fill="#ffffff" stroke="#d9e4f3"/>
<text x="1360" y="342" fill="#143d7a" font-size="22" font-family="Arial, sans-serif" font-weight="700" text-anchor="middle">Detect</text>
<text x="1360" y="368" fill="#4b5563" font-size="17" font-family="Arial, sans-serif" font-weight="400" text-anchor="middle">Drift / anomalies / shifts</text>
<circle cx="430" cy="640" r="34" fill="#ffffff" stroke="#eb5757" stroke-width="8"/>
<text x="430" y="650" fill="#143d7a" font-size="26" font-family="Arial, sans-serif" font-weight="700" text-anchor="middle">04</text>
<rect x="310" y="674" width="240" height="78" rx="18" fill="#ffffff" stroke="#d9e4f3"/>
<text x="430" y="702" fill="#143d7a" font-size="22" font-family="Arial, sans-serif" font-weight="700" text-anchor="middle">Diagnose</text>
<text x="430" y="728" fill="#4b5563" font-size="17" font-family="Arial, sans-serif" font-weight="400" text-anchor="middle">Alerts / tickets / impact</text>
<circle cx="1030" cy="640" r="34" fill="#ffffff" stroke="#1eb980" stroke-width="8"/>
<text x="1030" y="650" fill="#143d7a" font-size="26" font-family="Arial, sans-serif" font-weight="700" text-anchor="middle">05</text>
<rect x="910" y="674" width="240" height="78" rx="18" fill="#ffffff" stroke="#d9e4f3"/>
<text x="1030" y="702" fill="#143d7a" font-size="22" font-family="Arial, sans-serif" font-weight="700" text-anchor="middle">Respond</text>
<text x="1030" y="728" fill="#4b5563" font-size="17" font-family="Arial, sans-serif" font-weight="400" text-anchor="middle">Rollback / degrade / optimize</text>
<rect x="300" y="730" width="210" height="84" rx="18" fill="#ffffff" stroke="#d9e4f3"/>
<text x="330" y="765" fill="#64748b" font-size="18" font-family="Arial, sans-serif" font-weight="700">Response</text>
<text x="330" y="804" fill="#143d7a" font-size="30" font-family="Arial, sans-serif" font-weight="700">&lt;1h</text>
<rect x="590" y="730" width="210" height="84" rx="18" fill="#ffffff" stroke="#d9e4f3"/>
<text x="620" y="765" fill="#64748b" font-size="18" font-family="Arial, sans-serif" font-weight="700">Coverage</text>
<text x="620" y="804" fill="#143d7a" font-size="30" font-family="Arial, sans-serif" font-weight="700">100%</text>
<rect x="880" y="730" width="210" height="84" rx="18" fill="#ffffff" stroke="#d9e4f3"/>
<text x="910" y="765" fill="#64748b" font-size="18" font-family="Arial, sans-serif" font-weight="700">Closure</text>
<text x="910" y="804" fill="#143d7a" font-size="30" font-family="Arial, sans-serif" font-weight="700">98%</text>
<rect x="1170" y="730" width="210" height="84" rx="18" fill="#ffffff" stroke="#d9e4f3"/>
<text x="1200" y="765" fill="#64748b" font-size="18" font-family="Arial, sans-serif" font-weight="700">Rollback</text>
<text x="1200" y="804" fill="#143d7a" font-size="30" font-family="Arial, sans-serif" font-weight="700">&lt;5min</text>
</svg>
