<svg xmlns="http://www.w3.org/2000/svg" width="1600" height="900" viewBox="0 0 1600 900">
<defs>
  <linearGradient id="pageBg" x1="0" y1="0" x2="0" y2="1">
    <stop offset="0%" stop-color="#f4f7fb"/>
    <stop offset="100%" stop-color="#eef3f9"/>
  </linearGradient>
  <linearGradient id="navyGrad" x1="0" y1="0" x2="1" y2="0">
    <stop offset="0%" stop-color="#1f4f97"/>
    <stop offset="100%" stop-color="#123b7a"/>
  </linearGradient>
  <linearGradient id="blueGrad" x1="0" y1="0" x2="1" y2="0">
    <stop offset="0%" stop-color="#4da0ff"/>
    <stop offset="100%" stop-color="#1d6fe8"/>
  </linearGradient>
  <filter id="panelShadow" x="-10%" y="-10%" width="120%" height="120%">
    <feDropShadow dx="0" dy="12" stdDeviation="18" flood-color="#1e3a5f" flood-opacity="0.10"/>
  </filter>
</defs>
<rect width="1600" height="900" fill="url(#pageBg)"/>
<rect x="54" y="44" width="1492" height="812" rx="36" fill="#ffffff" stroke="#d7e3f4" stroke-width="1.5" filter="url(#panelShadow)"/>
<text x="110" y="126" fill="#143d7a" font-size="46" font-family="Arial, sans-serif" font-weight="700">Five Steps from Framing to Delivery</text>
<path d="M90 490 L250 490 L288 522 L250 554 L90 554 Q72 554 72 536 L72 508 Q72 490 90 490Z" fill="url(#blueGrad)"/>
<text x="170" y="532" fill="#ffffff" font-size="22" font-family="Arial, sans-serif" font-weight="700" text-anchor="middle">Frame the Issue</text>
<path d="M120 560 L250 560 L250 650 L340 650 L340 720 L120 720Z" fill="url(#navyGrad)" opacity="0.96"/>
<text x="146" y="634" fill="#cfe4ff" font-size="34" font-family="Arial, sans-serif" font-weight="700">01</text>
<text x="222" y="638" fill="#ffffff" font-size="24" font-family="Arial, sans-serif" font-weight="700">Frame the Issue</text>
<text x="148" y="678" fill="#dbeafe" font-size="18" font-family="Arial, sans-serif" font-weight="400">Align goals and scope first</text>
<path d="M355 430 L515 430 L553 462 L515 494 L355 494 Q337 494 337 476 L337 448 Q337 430 355 430Z" fill="url(#blueGrad)"/>
<text x="435" y="472" fill="#ffffff" font-size="22" font-family="Arial, sans-serif" font-weight="700" text-anchor="middle">Break Down the Structure</text>
<path d="M385 500 L515 500 L515 590 L605 590 L605 660 L385 660Z" fill="url(#navyGrad)" opacity="0.96"/>
<text x="411" y="574" fill="#cfe4ff" font-size="34" font-family="Arial, sans-serif" font-weight="700">02</text>
<text x="487" y="578" fill="#ffffff" font-size="24" font-family="Arial, sans-serif" font-weight="700">Break Down the Structure</text>
<text x="413" y="618" fill="#dbeafe" font-size="18" font-family="Arial, sans-serif" font-weight="400">Split the topic into clear modules</text>
<path d="M620 370 L780 370 L818 402 L780 434 L620 434 Q602 434 602 416 L602 388 Q602 370 620 370Z" fill="url(#blueGrad)"/>
<text x="700" y="412" fill="#ffffff" font-size="22" font-family="Arial, sans-serif" font-weight="700" text-anchor="middle">Deepen the Data</text>
<path d="M650 440 L780 440 L780 530 L870 530 L870 600 L650 600Z" fill="url(#navyGrad)" opacity="0.96"/>
<text x="676" y="514" fill="#cfe4ff" font-size="34" font-family="Arial, sans-serif" font-weight="700">03</text>
<text x="752" y="518" fill="#ffffff" font-size="24" font-family="Arial, sans-serif" font-weight="700">Deepen the Data</text>
<text x="678" y="558" fill="#dbeafe" font-size="18" font-family="Arial, sans-serif" font-weight="400">Add evidence and supporting data</text>
<path d="M885 310 L1045 310 L1083 342 L1045 374 L885 374 Q867 374 867 356 L867 328 Q867 310 885 310Z" fill="url(#blueGrad)"/>
<text x="965" y="352" fill="#ffffff" font-size="22" font-family="Arial, sans-serif" font-weight="700" text-anchor="middle">Drive the Plan</text>
<path d="M915 380 L1045 380 L1045 470 L1135 470 L1135 540 L915 540Z" fill="url(#navyGrad)" opacity="0.96"/>
<text x="941" y="454" fill="#cfe4ff" font-size="34" font-family="Arial, sans-serif" font-weight="700">04</text>
<text x="1017" y="458" fill="#ffffff" font-size="24" font-family="Arial, sans-serif" font-weight="700">Drive the Plan</text>
<text x="943" y="498" fill="#dbeafe" font-size="18" font-family="Arial, sans-serif" font-weight="400">Turn analysis into actions</text>
<path d="M1150 250 L1310 250 L1348 282 L1310 314 L1150 314 Q1132 314 1132 296 L1132 268 Q1132 250 1150 250Z" fill="url(#blueGrad)"/>
<text x="1230" y="292" fill="#ffffff" font-size="22" font-family="Arial, sans-serif" font-weight="700" text-anchor="middle">Optimize Delivery</text>
<path d="M1180 320 L1310 320 L1310 410 L1400 410 L1400 480 L1180 480Z" fill="url(#navyGrad)" opacity="0.96"/>
<text x="1206" y="394" fill="#cfe4ff" font-size="34" font-family="Arial, sans-serif" font-weight="700">05</text>
<text x="1282" y="398" fill="#ffffff" font-size="24" font-family="Arial, sans-serif" font-weight="700">Optimize Delivery</text>
<text x="1208" y="438" fill="#dbeafe" font-size="18" font-family="Arial, sans-serif" font-weight="400">Review and improve continuously</text>
</svg>
