<?xml version="1.0" encoding="UTF-8"?>
<svg xmlns="http://www.w3.org/2000/svg" width="1600" height="900" viewBox="0 0 1600 900">
<defs>
  <linearGradient id="pageBg" x1="0" y1="0" x2="0" y2="1">
    <stop offset="0%" stop-color="#f4f7fb"/>
    <stop offset="100%" stop-color="#eef3f9"/>
  </linearGradient>
  <linearGradient id="navyGrad" x1="0" y1="0" x2="1" y2="0">
    <stop offset="0%" stop-color="#1f4f97"/>
    <stop offset="100%" stop-color="#123b7a"/>
  </linearGradient>
  <linearGradient id="blueGrad" x1="0" y1="0" x2="1" y2="0">
    <stop offset="0%" stop-color="#4da0ff"/>
    <stop offset="100%" stop-color="#1d6fe8"/>
  </linearGradient>
  <filter id="panelShadow" x="-10%" y="-10%" width="120%" height="120%">
    <feDropShadow dx="0" dy="12" stdDeviation="18" flood-color="#1e3a5f" flood-opacity="0.10"/>
  </filter>
</defs>
<rect width="1600" height="900" fill="url(#pageBg)"/>
<rect x="54" y="44" width="1492" height="812" rx="36" fill="#ffffff" stroke="#d7e3f4" stroke-width="1.5" filter="url(#panelShadow)"/>
<text x="110" y="126" fill="#143d7a" font-size="46" font-family="Arial, sans-serif" font-weight="700">Platform Capability Panorama</text>
<rect x="110" y="180" width="1380" height="650" rx="30" fill="#f7faff" stroke="#d7e3f4"/>
<rect x="612" y="364" width="376" height="168" rx="30" fill="url(#navyGrad)"/>
<text x="800" y="438" fill="#ffffff" font-size="34" font-family="Arial, sans-serif" font-weight="700" text-anchor="middle">Unified Core Hub</text>
<text x="800" y="478" fill="rgba(255,255,255,0.82)" font-size="20" font-family="Arial, sans-serif" text-anchor="middle">Central theme with surrounding modules</text>
<rect x="150" y="214" width="360" height="126" rx="24" fill="#ffffff" stroke="#d7e3f4"/>
<rect x="170" y="234" width="92" height="24" rx="12" fill="#eef5ff"/>
<text x="216" y="251" fill="#1d4ed8" font-size="13" font-family="Arial, sans-serif" font-weight="700" text-anchor="middle">MODULE</text>
<text x="170" y="296" fill="#143d7a" font-size="28" font-family="Arial, sans-serif" font-weight="700">Data Base</text>
<rect x="620" y="214" width="360" height="126" rx="24" fill="#ffffff" stroke="#d7e3f4"/>
<rect x="640" y="234" width="92" height="24" rx="12" fill="#eef5ff"/>
<text x="686" y="251" fill="#1d4ed8" font-size="13" font-family="Arial, sans-serif" font-weight="700" text-anchor="middle">MODULE</text>
<text x="640" y="296" fill="#143d7a" font-size="28" font-family="Arial, sans-serif" font-weight="700">Model Service</text>
<rect x="1090" y="214" width="360" height="126" rx="24" fill="#ffffff" stroke="#d7e3f4"/>
<rect x="1110" y="234" width="92" height="24" rx="12" fill="#eef5ff"/>
<text x="1156" y="251" fill="#1d4ed8" font-size="13" font-family="Arial, sans-serif" font-weight="700" text-anchor="middle">MODULE</text>
<text x="1110" y="296" fill="#143d7a" font-size="28" font-family="Arial, sans-serif" font-weight="700">Business Flow</text>
<rect x="150" y="520" width="360" height="126" rx="24" fill="#ffffff" stroke="#d7e3f4"/>
<rect x="170" y="540" width="92" height="24" rx="12" fill="#eef5ff"/>
<text x="216" y="557" fill="#1d4ed8" font-size="13" font-family="Arial, sans-serif" font-weight="700" text-anchor="middle">MODULE</text>
<text x="170" y="602" fill="#143d7a" font-size="28" font-family="Arial, sans-serif" font-weight="700">App Access</text>
<rect x="1090" y="520" width="360" height="126" rx="24" fill="#ffffff" stroke="#d7e3f4"/>
<rect x="1110" y="540" width="92" height="24" rx="12" fill="#eef5ff"/>
<text x="1156" y="557" fill="#1d4ed8" font-size="13" font-family="Arial, sans-serif" font-weight="700" text-anchor="middle">MODULE</text>
<text x="1110" y="602" fill="#143d7a" font-size="28" font-family="Arial, sans-serif" font-weight="700">Quality Gate</text>
<rect x="150" y="676" width="360" height="126" rx="24" fill="#ffffff" stroke="#d7e3f4"/>
<rect x="170" y="696" width="92" height="24" rx="12" fill="#eef5ff"/>
<text x="216" y="713" fill="#1d4ed8" font-size="13" font-family="Arial, sans-serif" font-weight="700" text-anchor="middle">MODULE</text>
<text x="170" y="758" fill="#143d7a" font-size="28" font-family="Arial, sans-serif" font-weight="700">Process Sync</text>
<rect x="620" y="676" width="360" height="126" rx="24" fill="#ffffff" stroke="#d7e3f4"/>
<rect x="640" y="696" width="92" height="24" rx="12" fill="#eef5ff"/>
<text x="686" y="713" fill="#1d4ed8" font-size="13" font-family="Arial, sans-serif" font-weight="700" text-anchor="middle">MODULE</text>
<text x="640" y="758" fill="#143d7a" font-size="28" font-family="Arial, sans-serif" font-weight="700">Metric Insight</text>
<rect x="1090" y="676" width="360" height="126" rx="24" fill="#ffffff" stroke="#d7e3f4"/>
<rect x="1110" y="696" width="92" height="24" rx="12" fill="#eef5ff"/>
<text x="1156" y="713" fill="#1d4ed8" font-size="13" font-family="Arial, sans-serif" font-weight="700" text-anchor="middle">MODULE</text>
<text x="1110" y="758" fill="#143d7a" font-size="28" font-family="Arial, sans-serif" font-weight="700">Ops Loop</text>
</svg>
