<?xml version="1.0" encoding="UTF-8"?>
<svg xmlns="http://www.w3.org/2000/svg" width="1600" height="900" viewBox="0 0 1600 900">
<defs>
  <linearGradient id="pageBg" x1="0" y1="0" x2="0" y2="1">
    <stop offset="0%" stop-color="#f4f7fb"/>
    <stop offset="100%" stop-color="#eef3f9"/>
  </linearGradient>
  <linearGradient id="navyGrad" x1="0" y1="0" x2="1" y2="0">
    <stop offset="0%" stop-color="#1f4f97"/>
    <stop offset="100%" stop-color="#123b7a"/>
  </linearGradient>
  <linearGradient id="blueGrad" x1="0" y1="0" x2="1" y2="0">
    <stop offset="0%" stop-color="#4da0ff"/>
    <stop offset="100%" stop-color="#1d6fe8"/>
  </linearGradient>
  <filter id="panelShadow" x="-10%" y="-10%" width="120%" height="120%">
    <feDropShadow dx="0" dy="12" stdDeviation="18" flood-color="#1e3a5f" flood-opacity="0.10"/>
  </filter>
</defs>
<rect width="1600" height="900" fill="url(#pageBg)"/>
<rect x="54" y="44" width="1492" height="812" rx="36" fill="#ffffff" stroke="#d7e3f4" stroke-width="1.5" filter="url(#panelShadow)"/>
<text x="110" y="126" fill="#143d7a" font-size="46" font-family="Arial, sans-serif" font-weight="700">Four-Layer Unified Architecture</text>
<rect x="140" y="210" width="320" height="104" rx="24" fill="url(#navyGrad)"/>
<rect x="478" y="210" width="920" height="104" rx="24" fill="#ffffff" stroke="#d7e3f4"/>
<text x="190" y="268" fill="#ffffff" font-size="28" font-family="Arial, sans-serif" font-weight="700">Edge and Security</text>
<path d="M460 262 H478" stroke="#9bbce7" stroke-width="8" stroke-linecap="round"/>
<text x="516" y="268" fill="#334155" font-size="24" font-family="Arial, sans-serif">Isolation, edge deployment, audit trail</text>
<rect x="140" y="350" width="320" height="104" rx="24" fill="url(#navyGrad)"/>
<rect x="478" y="350" width="920" height="104" rx="24" fill="#ffffff" stroke="#d7e3f4"/>
<text x="190" y="408" fill="#ffffff" font-size="28" font-family="Arial, sans-serif" font-weight="700">AI Platform</text>
<path d="M460 402 H478" stroke="#9bbce7" stroke-width="8" stroke-linecap="round"/>
<text x="516" y="408" fill="#334155" font-size="24" font-family="Arial, sans-serif">Train, evaluate, release, infer, monitor</text>
<rect x="140" y="490" width="320" height="104" rx="24" fill="url(#navyGrad)"/>
<rect x="478" y="490" width="920" height="104" rx="24" fill="#ffffff" stroke="#d7e3f4"/>
<text x="190" y="548" fill="#ffffff" font-size="28" font-family="Arial, sans-serif" font-weight="700">Integration Platform</text>
<path d="M460 542 H478" stroke="#9bbce7" stroke-width="8" stroke-linecap="round"/>
<text x="516" y="548" fill="#334155" font-size="24" font-family="Arial, sans-serif">System connection, orchestration, message bus</text>
<rect x="140" y="630" width="320" height="104" rx="24" fill="url(#navyGrad)"/>
<rect x="478" y="630" width="920" height="104" rx="24" fill="#ffffff" stroke="#d7e3f4"/>
<text x="190" y="688" fill="#ffffff" font-size="28" font-family="Arial, sans-serif" font-weight="700">Data Foundation</text>
<path d="M460 682 H478" stroke="#9bbce7" stroke-width="8" stroke-linecap="round"/>
<text x="516" y="688" fill="#334155" font-size="24" font-family="Arial, sans-serif">Lakehouse, dictionary, quality, governance</text>
</svg>
