<svg xmlns="http://www.w3.org/2000/svg" width="1600" height="900" viewBox="0 0 1600 900">
  <rect width="1600" height="900" fill="#f8fafc"/>
  <rect x="60" y="50" width="1480" height="800" rx="32" fill="#ffffff" stroke="#dbeafe" stroke-width="2"/>

  <text x="110" y="126" fill="#0f172a" font-size="44" font-family="Arial, sans-serif" font-weight="700">Quadrant Axes</text>

  <line x1="780" y1="210" x2="780" y2="710" stroke="#94a3b8" stroke-width="4"/>
  <line x1="270" y1="460" x2="1290" y2="460" stroke="#94a3b8" stroke-width="4"/>

  <polygon points="1290,460 1256,444 1256,476" fill="#2563eb" opacity="0.75"/>
  <polygon points="780,210 764,244 796,244" fill="#2563eb" opacity="0.75"/>

  <rect x="270" y="210" width="510" height="250" rx="20" fill="#f8fafc" stroke="#e2e8f0"/>
  <rect x="780" y="210" width="510" height="250" rx="20" fill="#eff6ff" stroke="#bfdbfe"/>
  <rect x="270" y="460" width="510" height="250" rx="20" fill="#fff7ed" stroke="#fdba74"/>
  <rect x="780" y="460" width="510" height="250" rx="20" fill="#ecfdf5" stroke="#86efac"/>

  <text x="448" y="342" fill="#334155" font-size="26" font-family="Arial, sans-serif">象限 1</text>
  <text x="958" y="342" fill="#1d4ed8" font-size="26" font-family="Arial, sans-serif" font-weight="700">象限 2</text>
  <text x="448" y="592" fill="#c2410c" font-size="26" font-family="Arial, sans-serif">象限 3</text>
  <text x="958" y="592" fill="#15803d" font-size="26" font-family="Arial, sans-serif" font-weight="700">象限 4</text>

  <rect x="710" y="740" width="140" height="44" rx="22" fill="#ffffff" stroke="#e2e8f0"/>
  <text x="780" y="769" text-anchor="middle" fill="#334155" font-size="18" font-family="Arial, sans-serif" font-weight="700">X 轴</text>

  <g transform="translate(210 470) rotate(-90)">
    <rect x="-70" y="-22" width="140" height="44" rx="22" fill="#ffffff" stroke="#e2e8f0"/>
    <text x="0" y="6" text-anchor="middle" fill="#334155" font-size="18" font-family="Arial, sans-serif" font-weight="700">Y 轴</text>
  </g>
</svg>

