<svg xmlns="http://www.w3.org/2000/svg" width="1600" height="900" viewBox="0 0 1600 900">
  <defs>
    <linearGradient id="pageBg" x1="0" y1="0" x2="0" y2="1">
      <stop offset="0%" stop-color="#f4f7fb"/>
      <stop offset="100%" stop-color="#eef3f9"/>
    </linearGradient>
    <filter id="panelShadow" x="-10%" y="-10%" width="120%" height="120%">
      <feDropShadow dx="0" dy="12" stdDeviation="18" flood-color="#1e3a5f" flood-opacity="0.10"/>
    </filter>
  </defs>
<rect width="1600" height="900" fill="url(#pageBg)"/>
<rect x="54" y="44" width="1492" height="812" rx="36" fill="#ffffff" stroke="#d7e3f4" stroke-width="1.5" filter="url(#panelShadow)"/>
<text x="110" y="126" fill="#143d7a" font-size="46" font-family="Arial, sans-serif" font-weight="700">Pie Chart</text>

<circle cx="560" cy="470" r="220" fill="#dbeafe"/>
<path d="M560 470 L560 250 A220 220 0 0 1 751 580 Z" fill="#2563eb"/>
<path d="M560 470 L751 580 A220 220 0 0 1 380 597 Z" fill="#60a5fa"/>
<path d="M560 470 L380 597 A220 220 0 0 1 560 250 Z" fill="#93c5fd"/>
<rect x="930" y="286" width="28" height="28" rx="8" fill="#2563eb"/><rect x="930" y="356" width="28" height="28" rx="8" fill="#60a5fa"/><rect x="930" y="426" width="28" height="28" rx="8" fill="#93c5fd"/>
<text x="978" y="308" fill="#0f172a" font-size="24" font-family="Arial, sans-serif">Structure Diagrams</text>
<text x="978" y="378" fill="#0f172a" font-size="24" font-family="Arial, sans-serif">Flow Diagrams</text>
<text x="978" y="448" fill="#0f172a" font-size="24" font-family="Arial, sans-serif">Charts</text>

</svg>
