<svg xmlns="http://www.w3.org/2000/svg" width="1600" height="900" viewBox="0 0 1600 900">
  <defs>
    <linearGradient id="pageBg" x1="0" y1="0" x2="0" y2="1">
      <stop offset="0%" stop-color="#f4f7fb"/>
      <stop offset="100%" stop-color="#eef3f9"/>
    </linearGradient>
    <filter id="panelShadow" x="-10%" y="-10%" width="120%" height="120%">
      <feDropShadow dx="0" dy="12" stdDeviation="18" flood-color="#1e3a5f" flood-opacity="0.10"/>
    </filter>
  </defs>
<rect width="1600" height="900" fill="url(#pageBg)"/>
<rect x="54" y="44" width="1492" height="812" rx="36" fill="#ffffff" stroke="#d7e3f4" stroke-width="1.5" filter="url(#panelShadow)"/>
<text x="110" y="126" fill="#143d7a" font-size="46" font-family="Arial, sans-serif" font-weight="700">Donut Chart</text>

<circle cx="580" cy="470" r="220" fill="#dbeafe"/>
<circle cx="580" cy="470" r="110" fill="#ffffff"/>
<path d="M580 470 L580 250 A220 220 0 0 1 759 322 Z" fill="#2563eb"/>
<path d="M580 470 L759 322 A220 220 0 0 1 786 600 Z" fill="#60a5fa"/>
<path d="M580 470 L786 600 A220 220 0 0 1 373 612 Z" fill="#93c5fd"/>
<text x="580" y="458" text-anchor="middle" fill="#0f172a" font-size="32" font-family="Arial, sans-serif" font-weight="700">72%</text>
<text x="580" y="496" text-anchor="middle" fill="#64748b" font-size="22" font-family="Arial, sans-serif">Achievement Rate</text>
<rect x="960" y="296" width="350" height="88" rx="20" fill="#eff6ff"/>
<rect x="960" y="410" width="350" height="88" rx="20" fill="#eff6ff"/>
<rect x="960" y="524" width="350" height="88" rx="20" fill="#eff6ff"/>

</svg>
