<svg xmlns="http://www.w3.org/2000/svg" width="1600" height="900" viewBox="0 0 1600 900">
  <rect width="1600" height="900" fill="#f8fafc"/>
  <rect x="60" y="50" width="1480" height="800" rx="32" fill="#ffffff" stroke="#dbeafe" stroke-width="2"/>

  <text x="110" y="126" fill="#0f172a" font-size="44" font-family="Arial, sans-serif" font-weight="700">Coordinate Axis</text>

  <rect x="240" y="200" width="1120" height="560" rx="24" fill="#f1f5f9" opacity="0.55"/>
  <line x1="300" y1="700" x2="1300" y2="700" stroke="#0f172a" stroke-opacity="0.35" stroke-width="4"/>
  <line x1="300" y1="260" x2="300" y2="700" stroke="#0f172a" stroke-opacity="0.35" stroke-width="4"/>

  <line x1="300" y1="612" x2="1300" y2="612" stroke="#0f172a" stroke-opacity="0.10" stroke-width="2"/>
  <line x1="300" y1="524" x2="1300" y2="524" stroke="#0f172a" stroke-opacity="0.10" stroke-width="2"/>
  <line x1="300" y1="436" x2="1300" y2="436" stroke="#0f172a" stroke-opacity="0.10" stroke-width="2"/>
  <line x1="300" y1="348" x2="1300" y2="348" stroke="#0f172a" stroke-opacity="0.10" stroke-width="2"/>

  <line x1="500" y1="260" x2="500" y2="700" stroke="#0f172a" stroke-opacity="0.10" stroke-width="2"/>
  <line x1="700" y1="260" x2="700" y2="700" stroke="#0f172a" stroke-opacity="0.10" stroke-width="2"/>
  <line x1="900" y1="260" x2="900" y2="700" stroke="#0f172a" stroke-opacity="0.10" stroke-width="2"/>
  <line x1="1100" y1="260" x2="1100" y2="700" stroke="#0f172a" stroke-opacity="0.10" stroke-width="2"/>

  <circle cx="540" cy="560" r="14" fill="#2563eb" opacity="0.85"/>
  <text x="566" y="566" fill="#0f172a" font-size="20" font-family="Arial, sans-serif" font-weight="700">Point A</text>
  <circle cx="980" cy="410" r="18" fill="#7c3aed" opacity="0.82"/>
  <text x="1010" y="416" fill="#0f172a" font-size="20" font-family="Arial, sans-serif" font-weight="700">Point B</text>
  <circle cx="1180" cy="310" r="16" fill="#16a34a" opacity="0.82"/>
  <text x="1210" y="316" fill="#0f172a" font-size="20" font-family="Arial, sans-serif" font-weight="700">Point C</text>

  <rect x="730" y="740" width="140" height="44" rx="22" fill="#ffffff" stroke="#e2e8f0"/>
  <text x="800" y="769" text-anchor="middle" fill="#334155" font-size="18" font-family="Arial, sans-serif" font-weight="700">X 轴</text>

  <g transform="translate(210 480) rotate(-90)">
    <rect x="-70" y="-22" width="140" height="44" rx="22" fill="#ffffff" stroke="#e2e8f0"/>
    <text x="0" y="6" text-anchor="middle" fill="#334155" font-size="18" font-family="Arial, sans-serif" font-weight="700">Y 轴</text>
  </g>
</svg>

