<svg xmlns="http://www.w3.org/2000/svg" width="1600" height="900" viewBox="0 0 1600 900">
<rect width="1600" height="900" fill="#f8fafc"/>
<rect x="48" y="44" width="1504" height="812" rx="32" fill="#ffffff" stroke="#dbeafe" stroke-width="2"/>
<text x="96" y="108" fill="#0f172a" font-size="38" font-family="Arial, sans-serif" font-weight="700">Outline to Detail Workflow</text>
<text x="96" y="148" fill="#64748b" font-size="22" font-family="Arial, sans-serif">Confirm structure first, then generate detail pages, finally verify in frontend</text>

<g transform="translate(96 250)">
<rect width="280" height="380" rx="28" fill="#eff6ff" stroke="#bfdbfe"/>
<rect x="24" y="24" width="78" height="34" rx="17" fill="#2563eb"/>
<text x="63" y="46" text-anchor="middle" fill="#ffffff" font-size="16" font-family="Arial, sans-serif" font-weight="700">Input</text>
<text x="32" y="112" fill="#0f172a" font-size="30" font-family="Arial, sans-serif" font-weight="700">Materials</text>
<text x="32" y="162" fill="#334155" font-size="21" font-family="Arial, sans-serif">Requirements</text>
<text x="32" y="198" fill="#334155" font-size="21" font-family="Arial, sans-serif">Type detection</text>
<text x="32" y="234" fill="#334155" font-size="21" font-family="Arial, sans-serif">Goals &amp; constraints</text>
</g>

<g transform="translate(446 220)">
<rect width="300" height="440" rx="28" fill="#eef2ff" stroke="#c7d2fe"/>
<rect x="24" y="24" width="90" height="34" rx="17" fill="#4338ca"/>
<text x="69" y="46" text-anchor="middle" fill="#ffffff" font-size="16" font-family="Arial, sans-serif" font-weight="700">Phase 1</text>
<text x="32" y="112" fill="#0f172a" font-size="30" font-family="Arial, sans-serif" font-weight="700">outline</text>
<text x="32" y="162" fill="#334155" font-size="21" font-family="Arial, sans-serif">Plan chapters</text>
<text x="32" y="198" fill="#334155" font-size="21" font-family="Arial, sans-serif">Page intent</text>
<text x="32" y="234" fill="#334155" font-size="21" font-family="Arial, sans-serif">Select layout</text>
<rect x="32" y="318" width="220" height="78" rx="16" fill="#ffffff" stroke="#c7d2fe"/>
<text x="52" y="360" fill="#4338ca" font-size="18" font-family="Arial, sans-serif" font-weight="700">Gate</text>
<text x="52" y="388" fill="#334155" font-size="18" font-family="Arial, sans-serif">Revise outline if not passed</text>
</g>

<g transform="translate(826 220)">
<rect width="300" height="440" rx="28" fill="#ecfeff" stroke="#a5f3fc"/>
<rect x="24" y="24" width="90" height="34" rx="17" fill="#0891b2"/>
<text x="69" y="46" text-anchor="middle" fill="#ffffff" font-size="16" font-family="Arial, sans-serif" font-weight="700">Phase 2</text>
<text x="32" y="112" fill="#0f172a" font-size="30" font-family="Arial, sans-serif" font-weight="700">detail</text>
<text x="32" y="162" fill="#334155" font-size="21" font-family="Arial, sans-serif">Generate deck</text>
<text x="32" y="198" fill="#334155" font-size="21" font-family="Arial, sans-serif">Generate slides</text>
<text x="32" y="234" fill="#334155" font-size="21" font-family="Arial, sans-serif">Create SVG assets</text>
<rect x="32" y="318" width="220" height="78" rx="16" fill="#ffffff" stroke="#a5f3fc"/>
<text x="52" y="360" fill="#0891b2" font-size="18" font-family="Arial, sans-serif" font-weight="700">Gate</text>
<text x="52" y="388" fill="#334155" font-size="18" font-family="Arial, sans-serif">Revise detail if not passed</text>
</g>

<g transform="translate(1206 250)">
<rect width="250" height="380" rx="28" fill="#dcfce7" stroke="#86efac"/>
<rect x="24" y="24" width="78" height="34" rx="17" fill="#16a34a"/>
<text x="63" y="46" text-anchor="middle" fill="#ffffff" font-size="16" font-family="Arial, sans-serif" font-weight="700">Deliver</text>
<text x="32" y="112" fill="#0f172a" font-size="30" font-family="Arial, sans-serif" font-weight="700">Preview</text>
<text x="32" y="162" fill="#334155" font-size="21" font-family="Arial, sans-serif">Open viewer</text>
<text x="32" y="198" fill="#334155" font-size="21" font-family="Arial, sans-serif">GET /api/deck</text>
<text x="32" y="234" fill="#334155" font-size="21" font-family="Arial, sans-serif">Browser check</text>
</g>

<path d="M376 440 L446 440" stroke="#94a3b8" stroke-width="8" stroke-linecap="round"/>
<polygon points="446,440 426,428 426,452" fill="#94a3b8"/>
<path d="M746 440 L826 440" stroke="#94a3b8" stroke-width="8" stroke-linecap="round"/>
<polygon points="826,440 806,428 806,452" fill="#94a3b8"/>
<path d="M1126 440 L1206 440" stroke="#94a3b8" stroke-width="8" stroke-linecap="round"/>
<polygon points="1206,440 1186,428 1186,452" fill="#94a3b8"/>
</svg>
