<svg xmlns="http://www.w3.org/2000/svg" width="1600" height="900" viewBox="0 0 1600 900">
<rect width="1600" height="900" fill="#f8fafc"/>
<rect x="60" y="50" width="1480" height="800" rx="32" fill="#ffffff" stroke="#dbeafe" stroke-width="2"/>
<text x="110" y="126" fill="#0f172a" font-size="44" font-family="Arial, sans-serif" font-weight="700">Journey Map</text>

<line x1="180" y1="470" x2="1420" y2="470" stroke="#cbd5e1" stroke-width="6"/>
<rect x="180" y="270" width="240" height="120" rx="24" fill="#dbeafe"/>
<rect x="500" y="270" width="240" height="120" rx="24" fill="#dbeafe"/>
<rect x="820" y="270" width="240" height="120" rx="24" fill="#dbeafe"/>
<rect x="1140" y="270" width="240" height="120" rx="24" fill="#dbeafe"/>
<rect x="180" y="530" width="240" height="120" rx="24" fill="#ffffff" stroke="#cbd5e1"/>
<rect x="500" y="530" width="240" height="120" rx="24" fill="#ffffff" stroke="#cbd5e1"/>
<rect x="820" y="530" width="240" height="120" rx="24" fill="#ffffff" stroke="#cbd5e1"/>
<rect x="1140" y="530" width="240" height="120" rx="24" fill="#ffffff" stroke="#cbd5e1"/>
<text x="240" y="338" fill="#1d4ed8" font-size="26" font-family="Arial, sans-serif" font-weight="700">接触</text>
<text x="560" y="338" fill="#1d4ed8" font-size="26" font-family="Arial, sans-serif" font-weight="700">理解</text>
<text x="880" y="338" fill="#1d4ed8" font-size="26" font-family="Arial, sans-serif" font-weight="700">尝试</text>
<text x="1200" y="338" fill="#1d4ed8" font-size="26" font-family="Arial, sans-serif" font-weight="700">复用</text>

</svg>
