<svg xmlns="http://www.w3.org/2000/svg" width="1600" height="900" viewBox="0 0 1600 900">
  <defs>
    <linearGradient id="pageBg" x1="0" y1="0" x2="0" y2="1">
      <stop offset="0%" stop-color="#f4f7fb"/>
      <stop offset="100%" stop-color="#eef3f9"/>
    </linearGradient>
    <filter id="panelShadow" x="-10%" y="-10%" width="120%" height="120%">
      <feDropShadow dx="0" dy="12" stdDeviation="18" flood-color="#1e3a5f" flood-opacity="0.10"/>
    </filter>
  </defs>
<rect width="1600" height="900" fill="url(#pageBg)"/>
<rect x="54" y="44" width="1492" height="812" rx="36" fill="#ffffff" stroke="#d7e3f4" stroke-width="1.5" filter="url(#panelShadow)"/>
<text x="110" y="126" fill="#143d7a" font-size="46" font-family="Arial, sans-serif" font-weight="700">Radar Chart</text>

<polygon points="800,230 1030,350 1030,610 800,730 570,610 570,350" fill="none" stroke="#cbd5e1" stroke-width="2"/>
<polygon points="800,310 960,390 960,570 800,650 640,570 640,390" fill="none" stroke="#cbd5e1" stroke-width="2"/>
<polygon points="800,390 890,430 890,530 800,570 710,530 710,430" fill="#bfdbfe" stroke="#2563eb" stroke-width="4"/>
<text x="800" y="206" text-anchor="middle" fill="#0f172a" font-size="24" font-family="Arial, sans-serif">质量</text>
<text x="1080" y="350" fill="#0f172a" font-size="24" font-family="Arial, sans-serif">速度</text>
<text x="1080" y="630" fill="#0f172a" font-size="24" font-family="Arial, sans-serif">稳定性</text>
<text x="800" y="770" text-anchor="middle" fill="#0f172a" font-size="24" font-family="Arial, sans-serif">可维护性</text>
<text x="470" y="630" fill="#0f172a" font-size="24" font-family="Arial, sans-serif">复用性</text>
<text x="470" y="350" fill="#0f172a" font-size="24" font-family="Arial, sans-serif">表达力</text>

</svg>
