<svg xmlns="http://www.w3.org/2000/svg" width="1600" height="900" viewBox="0 0 1600 900">
  <defs>
    <linearGradient id="pageBg" x1="0" y1="0" x2="0" y2="1">
      <stop offset="0%" stop-color="#f4f7fb"/>
      <stop offset="100%" stop-color="#eef3f9"/>
    </linearGradient>
    <filter id="panelShadow" x="-10%" y="-10%" width="120%" height="120%">
      <feDropShadow dx="0" dy="12" stdDeviation="18" flood-color="#1e3a5f" flood-opacity="0.10"/>
    </filter>
  </defs>
<rect width="1600" height="900" fill="url(#pageBg)"/>
<rect x="54" y="44" width="1492" height="812" rx="36" fill="#ffffff" stroke="#d7e3f4" stroke-width="1.5" filter="url(#panelShadow)"/>
<text x="110" y="126" fill="#143d7a" font-size="46" font-family="Arial, sans-serif" font-weight="700">Scatter Plot</text>

<line x1="200" y1="700" x2="1380" y2="700" stroke="#94a3b8" stroke-width="4"/>
<line x1="200" y1="220" x2="200" y2="700" stroke="#94a3b8" stroke-width="4"/>
<circle cx="360" cy="620" r="18" fill="#93c5fd"/>
<circle cx="480" cy="520" r="18" fill="#60a5fa"/>
<circle cx="610" cy="560" r="18" fill="#2563eb"/>
<circle cx="760" cy="430" r="18" fill="#60a5fa"/>
<circle cx="900" cy="360" r="18" fill="#2563eb"/>
<circle cx="1060" cy="320" r="18" fill="#1d4ed8"/>
<circle cx="1180" cy="260" r="18" fill="#1d4ed8"/>
<circle cx="1280" cy="300" r="18" fill="#60a5fa"/>
<path d="M320 640 C540 540 760 430 1300 270" stroke="#cbd5e1" stroke-width="6" stroke-dasharray="12 10" fill="none"/>
<text x="1280" y="748" fill="#0f172a" font-size="24" font-family="Arial, sans-serif">X 维度</text>
<text x="126" y="246" fill="#0f172a" font-size="24" font-family="Arial, sans-serif">Y 维度</text>

</svg>
