<svg xmlns="http://www.w3.org/2000/svg" width="1600" height="900" viewBox="0 0 1600 900">
<rect width="1600" height="900" fill="#f8fafc"/>
<rect x="60" y="50" width="1480" height="800" rx="32" fill="#ffffff" stroke="#dbeafe" stroke-width="2"/>
<text x="110" y="126" fill="#0f172a" font-size="44" font-family="Arial, sans-serif" font-weight="700">Phases</text>
<g transform="translate(130 240)">
<rect width="300" height="380" rx="24" fill="#ffffff" stroke="#cbd5e1"/>
<rect x="26" y="24" width="88" height="34" rx="17" fill="#0f172a"/>
<text x="70" y="46" text-anchor="middle" fill="#ffffff" font-size="16" font-family="Arial, sans-serif" font-weight="700">阶段 1</text>
<text x="26" y="122" fill="#0f172a" font-size="30" font-family="Arial, sans-serif" font-weight="700">大纲质检</text>
<text x="26" y="174" fill="#334155" font-size="22" font-family="Arial, sans-serif">先检查结构、页序和页面意图</text>
<rect x="26" y="292" width="220" height="50" rx="14" fill="#eff6ff"/>
<text x="48" y="324" fill="#1d4ed8" font-size="18" font-family="Arial, sans-serif" font-weight="700">通过后进入 detail</text>
</g>
<path d="M430 430 L510 430" stroke="#94a3b8" stroke-width="8" stroke-linecap="round"/>
<polygon points="510,430 488,418 488,442" fill="#94a3b8"/>
<g transform="translate(560 240)">
<rect width="300" height="380" rx="24" fill="#ffffff" stroke="#cbd5e1"/>
<rect x="26" y="24" width="88" height="34" rx="17" fill="#0f172a"/>
<text x="70" y="46" text-anchor="middle" fill="#ffffff" font-size="16" font-family="Arial, sans-serif" font-weight="700">阶段 2</text>
<text x="26" y="122" fill="#0f172a" font-size="30" font-family="Arial, sans-serif" font-weight="700">详细页质检</text>
<text x="26" y="174" fill="#334155" font-size="22" font-family="Arial, sans-serif">检查字段、素材和布局表达</text>
<rect x="26" y="292" width="200" height="50" rx="14" fill="#eff6ff"/>
<text x="48" y="324" fill="#1d4ed8" font-size="18" font-family="Arial, sans-serif" font-weight="700">不过则回改</text>
</g>
<path d="M860 430 L940 430" stroke="#94a3b8" stroke-width="8" stroke-linecap="round"/>
<polygon points="940,430 918,418 918,442" fill="#94a3b8"/>
<g transform="translate(990 240)">
<rect width="300" height="380" rx="24" fill="#ffffff" stroke="#cbd5e1"/>
<rect x="26" y="24" width="88" height="34" rx="17" fill="#0f172a"/>
<text x="70" y="46" text-anchor="middle" fill="#ffffff" font-size="16" font-family="Arial, sans-serif" font-weight="700">阶段 3</text>
<text x="26" y="122" fill="#0f172a" font-size="30" font-family="Arial, sans-serif" font-weight="700">交付预览</text>
<text x="26" y="174" fill="#334155" font-size="22" font-family="Arial, sans-serif">浏览器打开并完成最终核对</text>
<rect x="26" y="292" width="214" height="50" rx="14" fill="#eff6ff"/>
<text x="48" y="324" fill="#1d4ed8" font-size="18" font-family="Arial, sans-serif" font-weight="700">形成可回归产物</text>
</g>
</svg>
