<svg xmlns="http://www.w3.org/2000/svg" width="1600" height="900" viewBox="0 0 1600 900">
  <defs>
    <linearGradient id="pageBg" x1="0" y1="0" x2="0" y2="1">
      <stop offset="0%" stop-color="#f4f7fb"/>
      <stop offset="100%" stop-color="#eef3f9"/>
    </linearGradient>
    <filter id="panelShadow" x="-10%" y="-10%" width="120%" height="120%">
      <feDropShadow dx="0" dy="12" stdDeviation="18" flood-color="#1e3a5f" flood-opacity="0.10"/>
    </filter>
  </defs>
<rect width="1600" height="900" fill="url(#pageBg)"/>
<rect x="54" y="44" width="1492" height="812" rx="36" fill="#ffffff" stroke="#d7e3f4" stroke-width="1.5" filter="url(#panelShadow)"/>
<text x="110" y="126" fill="#143d7a" font-size="46" font-family="Arial, sans-serif" font-weight="700">Heatmap</text>

<rect x="320" y="220" width="180" height="110" rx="18" fill="#eff6ff"/>
<rect x="520" y="220" width="180" height="110" rx="18" fill="#dbeafe"/>
<rect x="720" y="220" width="180" height="110" rx="18" fill="#bfdbfe"/>
<rect x="920" y="220" width="180" height="110" rx="18" fill="#93c5fd"/>
<rect x="1120" y="220" width="180" height="110" rx="18" fill="#60a5fa"/>
<rect x="320" y="350" width="180" height="110" rx="18" fill="#dbeafe"/>
<rect x="520" y="350" width="180" height="110" rx="18" fill="#bfdbfe"/>
<rect x="720" y="350" width="180" height="110" rx="18" fill="#93c5fd"/>
<rect x="920" y="350" width="180" height="110" rx="18" fill="#60a5fa"/>
<rect x="1120" y="350" width="180" height="110" rx="18" fill="#2563eb"/>
<rect x="320" y="480" width="180" height="110" rx="18" fill="#eff6ff"/>
<rect x="520" y="480" width="180" height="110" rx="18" fill="#93c5fd"/>
<rect x="720" y="480" width="180" height="110" rx="18" fill="#60a5fa"/>
<rect x="920" y="480" width="180" height="110" rx="18" fill="#2563eb"/>
<rect x="1120" y="480" width="180" height="110" rx="18" fill="#1d4ed8"/>
<rect x="320" y="610" width="180" height="110" rx="18" fill="#bfdbfe"/>
<rect x="520" y="610" width="180" height="110" rx="18" fill="#60a5fa"/>
<rect x="720" y="610" width="180" height="110" rx="18" fill="#2563eb"/>
<rect x="920" y="610" width="180" height="110" rx="18" fill="#1d4ed8"/>
<rect x="1120" y="610" width="180" height="110" rx="18" fill="#1e3a8a"/>
<text x="170" y="292" fill="#0f172a" font-size="24" font-family="Arial, sans-serif">A</text>
<text x="170" y="422" fill="#0f172a" font-size="24" font-family="Arial, sans-serif">B</text>
<text x="170" y="552" fill="#0f172a" font-size="24" font-family="Arial, sans-serif">C</text>
<text x="170" y="682" fill="#0f172a" font-size="24" font-family="Arial, sans-serif">D</text>

</svg>
