<svg xmlns="http://www.w3.org/2000/svg" width="1600" height="900" viewBox="0 0 1600 900">
  <defs>
    <linearGradient id="pageBg" x1="0" y1="0" x2="0" y2="1">
      <stop offset="0%" stop-color="#f4f7fb"/>
      <stop offset="100%" stop-color="#eef3f9"/>
    </linearGradient>
    <filter id="panelShadow" x="-10%" y="-10%" width="120%" height="120%">
      <feDropShadow dx="0" dy="12" stdDeviation="18" flood-color="#1e3a5f" flood-opacity="0.10"/>
    </filter>
  </defs>
<rect width="1600" height="900" fill="url(#pageBg)"/>
<rect x="54" y="44" width="1492" height="812" rx="36" fill="#ffffff" stroke="#d7e3f4" stroke-width="1.5" filter="url(#panelShadow)"/>
<text x="110" y="126" fill="#143d7a" font-size="46" font-family="Arial, sans-serif" font-weight="700">Dependency Graph</text>
<rect x="210" y="350" width="220" height="90" rx="20" fill="#eff6ff" stroke="#bfdbfe"/>
<rect x="690" y="180" width="220" height="90" rx="20" fill="#eef2ff" stroke="#c7d2fe"/>
<rect x="690" y="350" width="220" height="90" rx="20" fill="#ecfeff" stroke="#a5f3fc"/>
<rect x="690" y="520" width="220" height="90" rx="20" fill="#dcfce7" stroke="#86efac"/>
<rect x="1170" y="350" width="220" height="90" rx="20" fill="#fef3c7" stroke="#fde68a"/>
<path d="M430 395 L690 225" stroke="#94a3b8" stroke-width="6"/>
<path d="M430 395 L690 395" stroke="#94a3b8" stroke-width="6"/>
<path d="M430 395 L690 565" stroke="#94a3b8" stroke-width="6"/>
<path d="M910 225 L1170 395" stroke="#94a3b8" stroke-width="6"/>
<path d="M910 395 L1170 395" stroke="#94a3b8" stroke-width="6"/>
<path d="M910 565 L1170 395" stroke="#94a3b8" stroke-width="6"/>
<text x="270" y="405" fill="#1d4ed8" font-size="28" font-family="Arial, sans-serif" font-weight="700">任务</text>
<text x="750" y="236" fill="#4338ca" font-size="26" font-family="Arial, sans-serif" font-weight="700">Planner</text>
<text x="752" y="406" fill="#0891b2" font-size="26" font-family="Arial, sans-serif" font-weight="700">Skill</text>
<text x="724" y="576" fill="#15803d" font-size="26" font-family="Arial, sans-serif" font-weight="700">Evaluator</text>
<text x="1226" y="406" fill="#b45309" font-size="28" font-family="Arial, sans-serif" font-weight="700">交付</text>
</svg>
