<?xml version="1.0" encoding="UTF-8"?>
<svg xmlns="http://www.w3.org/2000/svg" width="1600" height="900" viewBox="0 0 1600 900">
<defs>
  <linearGradient id="pageBg" x1="0" y1="0" x2="0" y2="1">
    <stop offset="0%" stop-color="#f4f7fb"/>
    <stop offset="100%" stop-color="#eef3f9"/>
  </linearGradient>
  <linearGradient id="navyGrad" x1="0" y1="0" x2="1" y2="0">
    <stop offset="0%" stop-color="#1f4f97"/>
    <stop offset="100%" stop-color="#123b7a"/>
  </linearGradient>
  <linearGradient id="blueGrad" x1="0" y1="0" x2="1" y2="0">
    <stop offset="0%" stop-color="#4da0ff"/>
    <stop offset="100%" stop-color="#1d6fe8"/>
  </linearGradient>
  <filter id="panelShadow" x="-10%" y="-10%" width="120%" height="120%">
    <feDropShadow dx="0" dy="12" stdDeviation="18" flood-color="#1e3a5f" flood-opacity="0.10"/>
  </filter>
</defs>
<rect width="1600" height="900" fill="url(#pageBg)"/>
<rect x="54" y="44" width="1492" height="812" rx="36" fill="#ffffff" stroke="#d7e3f4" stroke-width="1.5" filter="url(#panelShadow)"/>
<text x="110" y="126" fill="#143d7a" font-size="46" font-family="Arial, sans-serif" font-weight="700">从输入到结果的处理链路</text>
<rect x="120" y="208" width="58" height="34" rx="17" fill="#1d6fe8"/>
<text x="149" y="231" fill="#ffffff" font-size="18" font-family="Arial, sans-serif" font-weight="700" text-anchor="middle">01</text>
<rect x="120" y="256" width="360" height="286" rx="26" fill="#ffffff" stroke="#d7e3f4"/>
<rect x="120" y="256" width="360" height="8" rx="4" fill="#1d6fe8"/>
<rect x="146" y="288" width="52" height="52" rx="16" fill="#1d6fe822"/>
<text x="218" y="320" fill="#143d7a" font-size="28" font-family="Arial, sans-serif" font-weight="700">输入采集</text>
<text x="146" y="376" fill="#64748b" font-size="18" font-family="Arial, sans-serif">需求 / 数据 / 业务约束</text>
<circle cx="154" cy="424" r="6" fill="#1d6fe8"/>
<text x="172" y="430" fill="#334155" font-size="20" font-family="Arial, sans-serif">统一输入口径</text>
<circle cx="154" cy="462" r="6" fill="#1d6fe8"/>
<text x="172" y="468" fill="#334155" font-size="20" font-family="Arial, sans-serif">识别关键条件</text>
<path d="M450 390 H508" stroke="#94a3b8" stroke-width="8" stroke-linecap="round"/>
<path d="M508 390 l-14 -10 v20 Z" fill="#4da0ff"/>
<rect x="560" y="208" width="58" height="34" rx="17" fill="#0ea5e9"/>
<text x="589" y="231" fill="#ffffff" font-size="18" font-family="Arial, sans-serif" font-weight="700" text-anchor="middle">02</text>
<rect x="560" y="256" width="360" height="286" rx="26" fill="#ffffff" stroke="#d7e3f4"/>
<rect x="560" y="256" width="360" height="8" rx="4" fill="#0ea5e9"/>
<rect x="586" y="288" width="52" height="52" rx="16" fill="#0ea5e922"/>
<text x="658" y="320" fill="#143d7a" font-size="28" font-family="Arial, sans-serif" font-weight="700">编排处理</text>
<text x="586" y="376" fill="#64748b" font-size="18" font-family="Arial, sans-serif">规则、模型与流程协同</text>
<circle cx="594" cy="424" r="6" fill="#0ea5e9"/>
<text x="612" y="430" fill="#334155" font-size="20" font-family="Arial, sans-serif">拆解步骤结构</text>
<circle cx="594" cy="462" r="6" fill="#0ea5e9"/>
<text x="612" y="468" fill="#334155" font-size="20" font-family="Arial, sans-serif">组织子卡与信息块</text>
<path d="M890 390 H948" stroke="#94a3b8" stroke-width="8" stroke-linecap="round"/>
<path d="M948 390 l-14 -10 v20 Z" fill="#4da0ff"/>
<rect x="1000" y="208" width="58" height="34" rx="17" fill="#10b981"/>
<text x="1029" y="231" fill="#ffffff" font-size="18" font-family="Arial, sans-serif" font-weight="700" text-anchor="middle">03</text>
<rect x="1000" y="256" width="360" height="286" rx="26" fill="#ffffff" stroke="#d7e3f4"/>
<rect x="1000" y="256" width="360" height="8" rx="4" fill="#10b981"/>
<rect x="1026" y="288" width="52" height="52" rx="16" fill="#10b98122"/>
<text x="1098" y="320" fill="#143d7a" font-size="28" font-family="Arial, sans-serif" font-weight="700">结果输出</text>
<text x="1026" y="376" fill="#64748b" font-size="18" font-family="Arial, sans-serif">报告、动作与闭环回流</text>
<circle cx="1034" cy="424" r="6" fill="#10b981"/>
<text x="1052" y="430" fill="#334155" font-size="20" font-family="Arial, sans-serif">生成结果卡片</text>
<circle cx="1034" cy="462" r="6" fill="#10b981"/>
<text x="1052" y="468" fill="#334155" font-size="20" font-family="Arial, sans-serif">沉淀为复用模板</text>
<rect x="120" y="612" width="320" height="106" rx="22" fill="#ffffff" stroke="#d7e3f4"/>
<text x="146" y="654" fill="#64748b" font-size="20" font-family="Arial, sans-serif" font-weight="700">输入</text>
<text x="146" y="696" fill="#143d7a" font-size="28" font-family="Arial, sans-serif" font-weight="700">资料 / 指标 / 规则</text>
<rect x="520" y="612" width="320" height="106" rx="22" fill="#ffffff" stroke="#d7e3f4"/>
<text x="546" y="654" fill="#64748b" font-size="20" font-family="Arial, sans-serif" font-weight="700">输出</text>
<text x="546" y="696" fill="#143d7a" font-size="28" font-family="Arial, sans-serif" font-weight="700">结果页 / 指标卡</text>
<rect x="920" y="612" width="320" height="106" rx="22" fill="#ffffff" stroke="#d7e3f4"/>
<text x="946" y="654" fill="#64748b" font-size="20" font-family="Arial, sans-serif" font-weight="700">闭环</text>
<text x="946" y="696" fill="#143d7a" font-size="28" font-family="Arial, sans-serif" font-weight="700">回改 / 复盘 / 优化</text>
<rect x="120" y="748" width="1280" height="64" rx="20" fill="#f3f7fc" stroke="#d7e3f4"/>
<text x="760" y="789" fill="#475569" font-size="20" font-family="Arial, sans-serif" text-anchor="middle">适合表达输入→处理→输出、阶段链路、流程步骤 + 成果卡的页面。</text>
</svg>
