<svg xmlns="http://www.w3.org/2000/svg" width="1600" height="900" viewBox="0 0 1600 900">
  <defs>
    <linearGradient id="pageBg" x1="0" y1="0" x2="0" y2="1">
      <stop offset="0%" stop-color="#f4f7fb"/>
      <stop offset="100%" stop-color="#eef3f9"/>
    </linearGradient>
    <filter id="panelShadow" x="-10%" y="-10%" width="120%" height="120%">
      <feDropShadow dx="0" dy="12" stdDeviation="18" flood-color="#1e3a5f" flood-opacity="0.10"/>
    </filter>
  </defs>
<rect width="1600" height="900" fill="url(#pageBg)"/>
<rect x="54" y="44" width="1492" height="812" rx="36" fill="#ffffff" stroke="#d7e3f4" stroke-width="1.5" filter="url(#panelShadow)"/>
<text x="110" y="126" fill="#143d7a" font-size="46" font-family="Arial, sans-serif" font-weight="700">Mind Map</text>

<rect x="660" y="360" width="280" height="110" rx="24" fill="#dbeafe"/>
<text x="800" y="425" text-anchor="middle" fill="#1d4ed8" font-size="28" font-family="Arial, sans-serif" font-weight="700">中心主题</text>
<line x1="660" y1="415" x2="430" y2="270" stroke="#94a3b8" stroke-width="6"/>
<line x1="940" y1="415" x2="1170" y2="270" stroke="#94a3b8" stroke-width="6"/>
<line x1="660" y1="415" x2="430" y2="610" stroke="#94a3b8" stroke-width="6"/>
<line x1="940" y1="415" x2="1170" y2="610" stroke="#94a3b8" stroke-width="6"/>
<rect x="250" y="210" width="220" height="94" rx="20" fill="#ffffff" stroke="#cbd5e1"/>
<rect x="1130" y="210" width="220" height="94" rx="20" fill="#ffffff" stroke="#cbd5e1"/>
<rect x="250" y="564" width="220" height="94" rx="20" fill="#ffffff" stroke="#cbd5e1"/>
<rect x="1130" y="564" width="220" height="94" rx="20" fill="#ffffff" stroke="#cbd5e1"/>

</svg>
