<svg xmlns="http://www.w3.org/2000/svg" width="1600" height="900" viewBox="0 0 1600 900">
  <defs>
    <linearGradient id="pageBg" x1="0" y1="0" x2="0" y2="1">
      <stop offset="0%" stop-color="#f4f7fb"/>
      <stop offset="100%" stop-color="#eef3f9"/>
    </linearGradient>
    <filter id="panelShadow" x="-10%" y="-10%" width="120%" height="120%">
      <feDropShadow dx="0" dy="12" stdDeviation="18" flood-color="#1e3a5f" flood-opacity="0.10"/>
    </filter>
  </defs>
<rect width="1600" height="900" fill="url(#pageBg)"/>
<rect x="54" y="44" width="1492" height="812" rx="36" fill="#ffffff" stroke="#d7e3f4" stroke-width="1.5" filter="url(#panelShadow)"/>
<text x="110" y="126" fill="#143d7a" font-size="46" font-family="Arial, sans-serif" font-weight="700">Evidence Gallery</text>

<rect x="160" y="210" width="360" height="220" rx="24" fill="#eff6ff"/>
<rect x="620" y="210" width="360" height="220" rx="24" fill="#eff6ff"/>
<rect x="1080" y="210" width="360" height="220" rx="24" fill="#eff6ff"/>
<rect x="160" y="500" width="360" height="220" rx="24" fill="#ffffff" stroke="#cbd5e1"/>
<rect x="620" y="500" width="360" height="220" rx="24" fill="#ffffff" stroke="#cbd5e1"/>
<rect x="1080" y="500" width="360" height="220" rx="24" fill="#ffffff" stroke="#cbd5e1"/>
<rect x="214" y="256" width="252" height="112" rx="16" fill="#ffffff" opacity="0.9"/>
<rect x="674" y="256" width="252" height="112" rx="16" fill="#ffffff" opacity="0.9"/>
<rect x="1134" y="256" width="252" height="112" rx="16" fill="#ffffff" opacity="0.9"/>

</svg>
