<svg xmlns="http://www.w3.org/2000/svg" width="1600" height="900" viewBox="0 0 1600 900">
  <defs>
    <linearGradient id="pageBg" x1="0" y1="0" x2="0" y2="1">
      <stop offset="0%" stop-color="#f4f7fb"/>
      <stop offset="100%" stop-color="#eef3f9"/>
    </linearGradient>
    <filter id="panelShadow" x="-10%" y="-10%" width="120%" height="120%">
      <feDropShadow dx="0" dy="12" stdDeviation="18" flood-color="#1e3a5f" flood-opacity="0.10"/>
    </filter>
  </defs>
<rect width="1600" height="900" fill="url(#pageBg)"/>
<rect x="54" y="44" width="1492" height="812" rx="36" fill="#ffffff" stroke="#d7e3f4" stroke-width="1.5" filter="url(#panelShadow)"/>
<text x="110" y="126" fill="#143d7a" font-size="46" font-family="Arial, sans-serif" font-weight="700">Bar Chart</text>
<line x1="200" y1="700" x2="1360" y2="700" stroke="#94a3b8" stroke-width="4"/>
<line x1="200" y1="200" x2="200" y2="700" stroke="#94a3b8" stroke-width="4"/>
<rect x="300" y="420" width="120" height="280" rx="18" fill="#93c5fd"/>
<rect x="520" y="330" width="120" height="370" rx="18" fill="#60a5fa"/>
<rect x="740" y="250" width="120" height="450" rx="18" fill="#3b82f6"/>
<rect x="960" y="390" width="120" height="310" rx="18" fill="#2563eb"/>
<rect x="1180" y="290" width="120" height="410" rx="18" fill="#1d4ed8"/>
<text x="336" y="744" fill="#334155" font-size="22" font-family="Arial, sans-serif">A</text>
<text x="556" y="744" fill="#334155" font-size="22" font-family="Arial, sans-serif">B</text>
<text x="776" y="744" fill="#334155" font-size="22" font-family="Arial, sans-serif">C</text>
<text x="996" y="744" fill="#334155" font-size="22" font-family="Arial, sans-serif">D</text>
<text x="1216" y="744" fill="#334155" font-size="22" font-family="Arial, sans-serif">E</text>
</svg>
