<svg xmlns="http://www.w3.org/2000/svg" width="1600" height="900" viewBox="0 0 1600 900">
  <defs>
    <linearGradient id="pageBg" x1="0" y1="0" x2="0" y2="1">
      <stop offset="0%" stop-color="#f4f7fb"/>
      <stop offset="100%" stop-color="#eef3f9"/>
    </linearGradient>
    <filter id="panelShadow" x="-10%" y="-10%" width="120%" height="120%">
      <feDropShadow dx="0" dy="12" stdDeviation="18" flood-color="#1e3a5f" flood-opacity="0.10"/>
    </filter>
  </defs>
<rect width="1600" height="900" fill="url(#pageBg)"/>
<rect x="54" y="44" width="1492" height="812" rx="36" fill="#ffffff" stroke="#d7e3f4" stroke-width="1.5" filter="url(#panelShadow)"/>
<text x="110" y="126" fill="#143d7a" font-size="46" font-family="Arial, sans-serif" font-weight="700">Raci</text>

<rect x="120" y="220" width="1360" height="470" rx="28" fill="#ffffff" stroke="#cbd5e1"/>
<line x1="120" y1="320" x2="1480" y2="320" stroke="#cbd5e1" stroke-width="2"/>
<line x1="400" y1="220" x2="400" y2="690" stroke="#cbd5e1" stroke-width="2"/>
<line x1="650" y1="220" x2="650" y2="690" stroke="#cbd5e1" stroke-width="2"/>
<line x1="900" y1="220" x2="900" y2="690" stroke="#cbd5e1" stroke-width="2"/>
<line x1="1150" y1="220" x2="1150" y2="690" stroke="#cbd5e1" stroke-width="2"/>
<line x1="120" y1="443" x2="1480" y2="443" stroke="#e2e8f0" stroke-width="2"/>
<line x1="120" y1="566" x2="1480" y2="566" stroke="#e2e8f0" stroke-width="2"/>
<text x="170" y="286" fill="#0f172a" font-size="28" font-family="Arial, sans-serif" font-weight="700">任务</text>
<text x="472" y="286" fill="#0f172a" font-size="28" font-family="Arial, sans-serif" font-weight="700">产品</text>
<text x="722" y="286" fill="#0f172a" font-size="28" font-family="Arial, sans-serif" font-weight="700">研发</text>
<text x="972" y="286" fill="#0f172a" font-size="28" font-family="Arial, sans-serif" font-weight="700">设计</text>
<text x="1222" y="286" fill="#0f172a" font-size="28" font-family="Arial, sans-serif" font-weight="700">运营</text>
<text x="504" y="390" fill="#2563eb" font-size="34" font-family="Arial, sans-serif" font-weight="700">A</text>
<text x="754" y="390" fill="#2563eb" font-size="34" font-family="Arial, sans-serif" font-weight="700">R</text>
<text x="1004" y="390" fill="#2563eb" font-size="34" font-family="Arial, sans-serif" font-weight="700">C</text>
<text x="1254" y="390" fill="#2563eb" font-size="34" font-family="Arial, sans-serif" font-weight="700">I</text>

</svg>
